<?xml version="1.0" encoding="UTF-8"?>
<svg width="559px" height="224px" viewBox="0 0 559 224" version="1.1" xmlns="http://www.w3.org/2000/svg" xmlns:xlink="http://www.w3.org/1999/xlink">
    <title>底部栏背景-链接元素（右）</title>
    <g id="页面-1" stroke="none" stroke-width="1" fill="none" fill-rule="evenodd">
        <g id="虚拟星空--light" transform="translate(-881.000000, -3084.000000)" fill="#1989FA" fill-rule="nonzero">
            <g id="底部栏背景-链接元素" transform="translate(0.000000, 2979.000000)">
                <path d="M1391.66875,296.595894 C1394.44233,296.595894 1396.69075,298.83447 1396.69075,301.595894 C1396.69075,304.210615 1394.67488,306.356566 1392.10609,306.577197 L1391.99999,329 L1391.00001,328.995461 L1391.10617,306.564872 C1388.59741,306.286441 1386.64676,304.167969 1386.64676,301.595894 C1386.64676,298.83447 1388.89518,296.595894 1391.66875,296.595894 Z M1229.35435,265.987071 C1232.11535,266.035264 1234.3142,268.330909 1234.26561,271.114538 C1234.22194,273.616316 1232.37778,275.660812 1230.00039,276.0142 L1230,329 L1229,329 L1228.99977,276.05977 L1228.96162,276.05904 C1226.48317,275.909019 1224.50452,273.945142 1224.28633,271.483577 L1172.07033,271.492359 C1171.83307,274.096061 1169.63842,276.113473 1167.00356,276.067482 C1164.42454,276.022465 1162.33602,274.016502 1162.1115,271.483577 L1058.53368,271.492359 C1058.29642,274.096061 1056.10178,276.113473 1053.46692,276.067482 C1050.70592,276.019288 1048.50707,273.723643 1048.55566,270.940014 C1048.60425,268.156385 1050.88187,265.938877 1053.64287,265.987071 C1056.19541,266.031625 1058.26747,267.99706 1058.52743,270.493114 L1162.12056,270.483287 C1162.3945,267.91785 1164.57134,265.941545 1167.17952,265.987071 C1169.73205,266.031625 1171.80412,267.99706 1172.06407,270.493114 L1224.29539,270.483287 C1224.56933,267.91785 1226.74616,265.941545 1229.35435,265.987071 Z M886.765768,275.497233 C889.527192,275.497233 891.765768,277.73581 891.765768,280.497233 C891.765768,283.103721 889.771345,285.244387 887.225335,285.476395 L887.225085,324.402462 C889.774813,324.595741 891.800297,326.39332 891.800297,329 L890.821163,329 C890.821163,326.790861 888.974907,325.385168 886.765768,325.385168 C884.556629,325.385168 882.821163,326.790861 882.821163,329 L881.800297,329 C881.800297,326.421548 883.721941,324.634768 886.224674,324.409305 L886.225028,285.468333 C883.717926,285.198728 881.765768,283.075956 881.765768,280.497233 C881.765768,277.73581 884.004344,275.497233 886.765768,275.497233 Z M1391.66875,297.595894 C1389.44649,297.595894 1387.64676,299.38774 1387.64676,301.595894 C1387.64676,303.804048 1389.44649,305.595894 1391.66875,305.595894 C1393.89102,305.595894 1395.69075,303.804048 1395.69075,301.595894 C1395.69075,299.38774 1393.89102,297.595894 1391.66875,297.595894 Z M1330.94049,217.49277 C1333.66905,217.49277 1335.88098,219.731346 1335.88098,222.49277 C1335.88098,225.096686 1333.91418,227.235698 1331.40203,227.471239 L1331.40203,248.5143 C1333.91418,248.749841 1335.88098,250.888853 1335.88098,253.49277 C1335.88098,256.254193 1333.66905,258.49277 1330.94049,258.49277 C1330.63039,258.49277 1330.32697,258.463856 1330.03271,258.408548 L1301.21989,288.446564 C1301.89093,289.300283 1302.29186,290.381176 1302.29186,291.556841 C1302.29186,294.318265 1300.07993,296.556841 1297.35137,296.556841 C1294.62282,296.556841 1292.41088,294.318265 1292.41088,291.556841 C1292.41088,288.795417 1294.62282,286.556841 1297.35137,286.556841 C1298.56046,286.556841 1299.66811,286.996405 1300.5268,287.726246 L1328.96518,258.077118 C1327.21982,257.305766 1326,255.543436 1326,253.49277 C1326,250.915441 1327.92684,248.79357 1330.40217,248.522109 L1330.40217,227.46343 C1327.92684,227.191969 1326,225.070098 1326,222.49277 C1326,219.731346 1328.21193,217.49277 1330.94049,217.49277 Z M1297.35137,287.556841 C1295.1778,287.556841 1293.41088,289.34504 1293.41088,291.556841 C1293.41088,293.768643 1295.1778,295.556841 1297.35137,295.556841 C1299.52495,295.556841 1301.29186,293.768643 1301.29186,291.556841 C1301.29186,290.665283 1301.00477,289.842553 1300.51967,289.178026 L1300.25462,289.454076 L1299.53293,288.761858 L1299.83291,288.449572 C1299.15508,287.891194 1298.29125,287.556841 1297.35137,287.556841 Z M886.765768,276.497233 C884.556629,276.497233 882.765768,278.288094 882.765768,280.497233 C882.765768,282.706372 884.556629,284.497233 886.765768,284.497233 C888.974907,284.497233 890.765768,282.706372 890.765768,280.497233 C890.765768,278.288094 888.974907,276.497233 886.765768,276.497233 Z M1167.16207,266.986918 C1164.9551,266.948396 1163.13113,268.72422 1163.09215,270.957466 C1163.05317,273.190713 1164.81405,275.029111 1167.02102,275.067634 C1169.22798,275.106157 1171.05195,273.330332 1171.09093,271.097086 C1171.12991,268.863839 1169.36903,267.025441 1167.16207,266.986918 Z M1053.62542,266.986918 C1051.41845,266.948396 1049.59449,268.72422 1049.55551,270.957466 C1049.51652,273.190713 1051.2774,275.029111 1053.48437,275.067634 C1055.69134,275.106157 1057.51531,273.330332 1057.55429,271.097086 C1057.59327,268.863839 1055.83239,267.025441 1053.62542,266.986918 Z M1229.33689,266.986918 C1227.12993,266.948396 1225.30596,268.72422 1225.26698,270.957466 C1225.22916,273.124392 1226.88588,274.919573 1229.00044,275.059477 L1229,274.99277 L1230,274.99277 C1231.82962,274.65653 1233.23164,273.052076 1233.26576,271.097086 C1233.30474,268.863839 1231.54386,267.025441 1229.33689,266.986918 Z M1331.40233,249.519973 L1331.40178,249.525469 L1330.44658,249.523911 C1328.50546,249.770472 1327,251.451161 1327,253.49277 C1327,255.704571 1328.76691,257.49277 1330.94049,257.49277 C1333.11406,257.49277 1334.88098,255.704571 1334.88098,253.49277 C1334.88098,251.439931 1333.35891,249.751995 1331.40233,249.519973 Z M1371.78805,234.549425 C1374.35804,234.549425 1376.47339,236.50366 1376.74011,239.012685 L1440.00729,239.492783 L1440,240.492756 L1376.74735,240.013009 C1376.51437,242.5571 1374.38297,244.549425 1371.78805,244.549425 C1369.03744,244.549425 1366.80763,242.310849 1366.80763,239.549425 C1366.80763,236.788001 1369.03744,234.549425 1371.78805,234.549425 Z M1371.78805,235.549425 C1369.5906,235.549425 1367.80763,237.33941 1367.80763,239.549425 C1367.80763,241.75944 1369.5906,243.549425 1371.78805,243.549425 C1373.9855,243.549425 1375.76847,241.75944 1375.76847,239.549425 C1375.76847,237.33941 1373.9855,235.549425 1371.78805,235.549425 Z M1330.94049,218.49277 C1328.76691,218.49277 1327,220.280968 1327,222.49277 C1327,224.704571 1328.76691,226.49277 1330.94049,226.49277 C1333.11406,226.49277 1334.88098,224.704571 1334.88098,222.49277 C1334.88098,220.280968 1333.11406,218.49277 1330.94049,218.49277 Z M1366.78833,181.603105 C1369.51689,181.603105 1371.72882,183.841681 1371.72882,186.603105 C1371.72882,189.364529 1369.51689,191.603105 1366.78833,191.603105 C1365.61816,191.603105 1364.543,191.191379 1363.69658,190.50326 L1334.85355,219.346323 L1334.14645,218.639216 L1362.98786,189.798043 C1362.27597,188.931661 1361.84784,187.817982 1361.84784,186.603105 C1361.84784,183.841681 1364.05978,181.603105 1366.78833,181.603105 Z M1366.78833,182.603105 C1364.61476,182.603105 1362.84784,184.391303 1362.84784,186.603105 C1362.84784,188.814906 1364.61476,190.603105 1366.78833,190.603105 C1368.96191,190.603105 1370.72882,188.814906 1370.72882,186.603105 C1370.72882,184.391303 1368.96191,182.603105 1366.78833,182.603105 Z M1391.64676,105.49277 C1394.40818,105.49277 1396.64676,107.731346 1396.64676,110.49277 C1396.64676,111.704537 1396.21569,112.815624 1395.49854,113.68105 L1440,151.106417 L1440,152.600328 L1394.78318,114.386942 C1393.92543,115.078657 1392.83446,115.49277 1391.64676,115.49277 C1388.88533,115.49277 1386.64676,113.254193 1386.64676,110.49277 C1386.64676,107.731346 1388.88533,105.49277 1391.64676,105.49277 Z M1391.64676,106.49277 C1389.43762,106.49277 1387.64676,108.283631 1387.64676,110.49277 C1387.64676,112.701909 1389.43762,114.49277 1391.64676,114.49277 C1393.8559,114.49277 1395.64676,112.701909 1395.64676,110.49277 C1395.64676,108.283631 1393.8559,106.49277 1391.64676,106.49277 Z" id="底部栏背景-链接元素（右）"></path>
            </g>
        </g>
    </g>
</svg>