<?xml version="1.0" encoding="UTF-8"?>
<svg width="634px" height="202px" viewBox="0 0 634 202" version="1.1" xmlns="http://www.w3.org/2000/svg" xmlns:xlink="http://www.w3.org/1999/xlink">
    <title>底部栏背景-链接元素（左）</title>
    <g id="页面-1" stroke="none" stroke-width="1" fill="none" fill-rule="evenodd">
        <g id="虚拟星空--light" transform="translate(0.000000, -3106.000000)" fill="#1989FA" fill-rule="nonzero">
            <g id="底部栏背景-链接元素" transform="translate(0.000000, 2979.000000)">
                <path d="M31.8993185,313.595894 C34.6656135,313.595894 36.9081387,315.828597 36.9081387,318.582776 C36.9081387,321.151998 34.9566933,323.267432 32.4490226,323.539969 L32.4483559,329 L31.4483559,329 L31.4480893,323.549695 C28.8932183,323.322577 26.8904982,321.185532 26.8904982,318.582776 C26.8904982,315.828597 29.1330234,313.595894 31.8993185,313.595894 Z M371.044035,287.986303 C373.781139,287.986303 376,290.223347 376,292.98288 C376,295.742413 373.781139,297.979457 371.044035,297.979457 C368.477831,297.979457 366.367173,296.013045 366.113607,293.49325 L262.47831,293.49277 L262.43822,293.489247 C262.186488,296.010961 260.074954,297.979457 257.507391,297.979457 C254.941186,297.979457 252.830528,296.013045 252.576963,293.49325 L201.263987,293.483239 C201.036758,295.787327 199.257032,297.630821 196.994485,297.935278 L197,297.99277 L196.991944,329 L196,329 L196,297.99277 L196.002474,297.96855 C193.419268,297.797292 191.376597,295.630586 191.376597,292.98288 C191.376597,290.223347 193.595458,287.986303 196.332561,287.986303 C198.902164,287.986303 201.015012,289.957925 201.263987,292.482521 L252.574987,292.492538 C252.819354,289.963143 254.934391,287.986303 257.507391,287.986303 C260.08141,287.986303 262.197103,289.964709 262.440083,292.495544 L262.47831,292.49277 L366.111632,292.492538 C366.355999,289.963143 368.471036,287.986303 371.044035,287.986303 Z M628.377448,279.452252 C631.106005,279.452252 633.317937,281.690828 633.317937,284.452252 C633.317937,287.213676 631.106005,289.452252 628.377448,289.452252 C627.352926,289.452252 626.401241,289.136644 625.612138,288.596253 L597.859701,317.340067 L597.809659,317.383326 C598.480305,318.236915 598.880977,319.317487 598.880977,320.49277 C598.880977,323.234158 596.701025,325.460259 593.999796,325.492417 L594,329 L593,329 L593,325.49277 L593.008056,325.402894 L592.894122,325.380409 C590.66814,324.894618 589,322.890848 589,320.49277 C589,317.731346 591.211932,315.49277 593.940489,315.49277 C595.152357,315.49277 596.262314,315.934357 597.121831,316.667212 L597.140299,316.645472 L624.847446,287.950408 C623.974896,287.048693 623.436959,285.81405 623.436959,284.452252 C623.436959,281.690828 625.648891,279.452252 628.377448,279.452252 Z M593.940489,316.49277 C591.766915,316.49277 590,318.280968 590,320.49277 C590,322.704571 591.766915,324.49277 593.940489,324.49277 C596.114063,324.49277 597.880977,322.704571 597.880977,320.49277 C597.880977,318.280968 596.114063,316.49277 593.940489,316.49277 Z M31.8993185,314.595894 C29.6843279,314.595894 27.8904982,316.381867 27.8904982,318.582776 C27.8904982,320.783685 29.6843279,322.569657 31.8993185,322.569657 C34.114309,322.569657 35.9081387,320.783685 35.9081387,318.582776 C35.9081387,316.381867 34.114309,314.595894 31.8993185,314.595894 Z M128.184229,308.556841 C130.923442,308.556841 133.144012,310.80416 133.144012,313.576368 C133.144012,316.348576 130.923442,318.595894 128.184229,318.595894 C125.445017,318.595894 123.224446,316.348576 123.224446,313.576368 C123.224446,310.80416 125.445017,308.556841 128.184229,308.556841 Z M128.184229,309.556841 C126,309.556841 124.224446,311.353782 124.224446,313.576368 C124.224446,315.798953 126,317.595894 128.184229,317.595894 C130.368459,317.595894 132.144012,315.798953 132.144012,313.576368 C132.144012,311.353782 130.368459,309.556841 128.184229,309.556841 Z M56.7472699,201.603105 C59.4864823,201.603105 61.7070527,203.850423 61.7070527,206.622631 C61.7070527,208.248438 60.943304,209.693712 59.7591038,210.611022 L88.2238206,240.648852 L88.2797928,240.719631 C88.2936899,240.740891 88.3057936,240.762959 88.3161094,240.785626 C89.2236265,239.75626 90.5445266,239.108752 92.0148602,239.108752 C94.7540726,239.108752 96.974643,241.356071 96.974643,244.128279 C96.974643,246.517212 95.3256417,248.516361 93.1167597,249.023486 L93.1167364,271.13959 C95.8089193,271.194488 97.974643,273.420321 97.974643,276.158079 C97.974643,277.742332 97.2494357,279.155164 96.1166629,280.075106 L124.39165,309.647235 L124.447938,309.717763 C124.578529,309.91561 124.553206,310.184534 124.37579,310.354164 C124.198375,310.523794 123.928586,310.537031 123.736794,310.397698 L123.668861,310.338304 L95.2661775,280.631904 C94.5905487,280.980829 93.8254108,281.177606 93.0148602,281.177606 C90.2756478,281.177606 88.0550774,278.930287 88.0550774,276.158079 C88.0550774,273.696544 89.8058316,271.648844 92.1158725,271.2208 L92.116,249.145105 L92.0148602,249.147805 C89.3477323,249.147805 87.1723087,247.01721 87.0596597,244.346015 L87.0550774,244.128279 C87.0550774,243.159109 87.3264793,242.254092 87.7965614,241.486825 C87.714033,241.47755 87.6336708,241.446638 87.5638921,241.395084 L87.497953,241.336687 L58.8917392,211.150003 C58.2427158,211.465447 57.5153838,211.642158 56.7472699,211.642158 C54.0080575,211.642158 51.7874871,209.394839 51.7874871,206.622631 C51.7874871,203.850423 54.0080575,201.603105 56.7472699,201.603105 Z M371.044035,288.986303 C368.861052,288.986303 367.088071,290.773813 367.088071,292.98288 C367.088071,295.191947 368.861052,296.979457 371.044035,296.979457 C373.227019,296.979457 375,295.191947 375,292.98288 C375,290.773813 373.227019,288.986303 371.044035,288.986303 Z M257.507391,288.986303 C255.324407,288.986303 253.551426,290.773813 253.551426,292.98288 C253.551426,295.191947 255.324407,296.979457 257.507391,296.979457 C259.690374,296.979457 261.463355,295.191947 261.463355,292.98288 C261.463355,290.773813 259.690374,288.986303 257.507391,288.986303 Z M196.332561,288.986303 C194.149578,288.986303 192.376597,290.773813 192.376597,292.98288 C192.376597,295.191947 194.149578,296.979457 196.332561,296.979457 C198.515545,296.979457 200.288526,295.191947 200.288526,292.98288 C200.288526,290.773813 198.515545,288.986303 196.332561,288.986303 Z M628.377448,280.452252 C626.203874,280.452252 624.436959,282.240451 624.436959,284.452252 C624.436959,286.664054 626.203874,288.452252 628.377448,288.452252 C630.551022,288.452252 632.317937,286.664054 632.317937,284.452252 C632.317937,282.240451 630.551022,280.452252 628.377448,280.452252 Z M93.0148602,272.138553 C90.8306305,272.138553 89.0550774,273.935493 89.0550774,276.158079 C89.0550774,278.380665 90.8306305,280.177606 93.0148602,280.177606 C95.1990898,280.177606 96.974643,278.380665 96.974643,276.158079 C96.974643,273.935493 95.1990898,272.138553 93.0148602,272.138553 Z M50,256.49277 C52.7614237,256.49277 55,258.731346 55,261.49277 C55,264.254193 52.7614237,266.49277 50,266.49277 C47.398311,266.49277 45.2607307,264.505684 45.0221391,261.966393 L5.1159077e-13,262.428981 L5.1159077e-13,261.436142 L45.0274146,260.966032 C45.2906063,258.452201 47.4164783,256.49277 50,256.49277 Z M50,257.49277 C47.790861,257.49277 46,259.283631 46,261.49277 C46,263.701909 47.790861,265.49277 50,265.49277 C52.209139,265.49277 54,263.701909 54,261.49277 C54,259.283631 52.209139,257.49277 50,257.49277 Z M92.0148602,240.108752 C89.8306305,240.108752 88.0550774,241.905693 88.0550774,244.128279 C88.0550774,246.350865 89.8306305,248.147805 92.0148602,248.147805 C94.1990898,248.147805 95.974643,246.350865 95.974643,244.128279 C95.974643,241.905693 94.1990898,240.108752 92.0148602,240.108752 Z M56.7472699,202.603105 C54.5630402,202.603105 52.7874871,204.400046 52.7874871,206.622631 C52.7874871,208.845217 54.5630402,210.642158 56.7472699,210.642158 C58.9314995,210.642158 60.7070527,208.845217 60.7070527,206.622631 C60.7070527,204.400046 58.9314995,202.603105 56.7472699,202.603105 Z M31.9827988,127.49277 C34.7029889,127.49277 36.9081387,129.729627 36.9081387,132.48893 C36.9081387,135.248233 34.7029889,137.48509 31.9827988,137.48509 C30.6347178,137.48509 29.4131323,136.935711 28.5237566,136.045627 L28.5146635,136.054412 L-3.97903932e-13,159.453588 L-3.97903932e-13,158.165764 L27.8793029,135.282197 L27.8927806,135.273528 C27.3652819,134.477868 27.0574589,133.519864 27.0574589,132.48893 C27.0574589,129.729627 29.2626087,127.49277 31.9827988,127.49277 Z M31.9827988,128.49277 C29.8181143,128.49277 28.0574589,130.278741 28.0574589,132.48893 C28.0574589,134.699118 29.8181143,136.48509 31.9827988,136.48509 C34.1474833,136.48509 35.9081387,134.699118 35.9081387,132.48893 C35.9081387,130.278741 34.1474833,128.49277 31.9827988,128.49277 Z" id="底部栏背景-链接元素（左）"></path>
            </g>
        </g>
    </g>
</svg>