<?xml version="1.0" encoding="UTF-8"?>
<svg width="240px" height="260px" viewBox="0 0 240 260" version="1.1" xmlns="http://www.w3.org/2000/svg" xmlns:xlink="http://www.w3.org/1999/xlink">
    <title>背景-左</title>
    <g id="页面-1" stroke="none" stroke-width="1" fill="none" fill-rule="evenodd">
        <g id="虚拟星空--light" transform="translate(0.000000, -592.000000)">
            <g id="背景" transform="translate(0.000000, 80.000000)">
                <g id="背景-左" transform="translate(0.000000, 512.000000)">
                    <path d="M160,198 L160,260 L98,260 L98,198 L160,198 Z M240,117 L240,146 L211,146 L211,117 L240,117 Z M81,0 L81,24 L57,24 L57,0 L81,0 Z" id="方块-左" fill="#0F77FF" opacity="0.06"></path>
                    <path d="M201.077058,102.445946 C203.834382,102.445946 206.069636,104.684522 206.069636,107.445946 C206.069636,110.20737 203.834382,112.445946 201.077058,112.445946 C199.711814,112.445946 198.47456,111.897143 197.573251,111.007802 L152.159086,145.469637 C152.62053,146.227232 152.886389,147.117392 152.886389,148.069739 C152.886389,150.831163 150.651135,153.069739 147.893811,153.069739 C145.136486,153.069739 142.901232,150.831163 142.901232,148.069739 L142.904,148.239 L106.292909,148.239141 L106.203034,148.231085 C106.132643,148.218309 106.067386,148.190795 106.010575,148.151857 C105.969055,150.874926 103.75068,153.069739 101.02044,153.069739 C98.2631155,153.069739 96.0278621,150.831163 96.0278621,148.069739 C96.0278621,145.308316 98.2631155,143.069739 101.02044,143.069739 C103.538556,143.069739 105.621255,144.936753 105.963668,147.363971 C106.050295,147.286357 106.166089,147.239141 106.292909,147.239141 L106.292909,147.239141 L142.969831,147.238984 C143.364913,144.872954 145.419092,143.069739 147.893811,143.069739 C149.341031,143.069739 150.64443,143.686427 151.556297,144.671724 L196.933913,110.236713 C196.397558,109.439648 196.084479,108.479413 196.084479,107.445946 C196.084479,104.684522 198.319733,102.445946 201.077058,102.445946 Z M34.436549,79.7449324 C37.2203933,79.7449324 39.477145,81.9835087 39.477145,84.7449324 C39.477145,87.3694289 37.43865,89.5216438 34.8465674,89.7286293 L34.8465674,112.283557 C37.43865,112.490542 39.477145,114.642757 39.477145,117.267254 C39.477145,120.028678 37.2203933,122.267254 34.436549,122.267254 C33.2240652,122.267254 32.1115696,121.842601 31.2419693,121.135052 L0,152.968727 L0,151.717119 L30.5332907,120.431193 C29.8224307,119.56932 29.3959531,118.467691 29.3959531,117.267254 C29.3959531,114.703802 31.3407214,112.590918 33.846575,112.301139 L33.846575,89.7110474 C31.3407214,89.4212687 29.3959531,87.308384 29.3959531,84.7449324 C29.3959531,81.9835087 31.6527047,79.7449324 34.436549,79.7449324 Z M101.02044,144.069739 C98.8157331,144.069739 97.0278621,145.860268 97.0278621,148.069739 C97.0278621,150.279211 98.8157331,152.069739 101.02044,152.069739 C103.225148,152.069739 105.013019,150.279211 105.013019,148.069739 C105.013019,145.860268 103.225148,144.069739 101.02044,144.069739 Z M147.893811,144.069739 C145.689103,144.069739 143.901232,145.860268 143.901232,148.069739 C143.901232,150.279211 145.689103,152.069739 147.893811,152.069739 C150.098518,152.069739 151.886389,150.279211 151.886389,148.069739 C151.886389,145.860268 150.098518,144.069739 147.893811,144.069739 Z M34.436549,113.267254 C32.2031874,113.267254 30.3959531,115.059933 30.3959531,117.267254 C30.3959531,119.474575 32.2031874,121.267254 34.436549,121.267254 C36.6699106,121.267254 38.477145,119.474575 38.477145,117.267254 C38.477145,115.059933 36.6699106,113.267254 34.436549,113.267254 Z M201.077058,103.445946 C198.87235,103.445946 197.084479,105.236475 197.084479,107.445946 C197.084479,109.655417 198.87235,111.445946 201.077058,111.445946 C203.281765,111.445946 205.069636,109.655417 205.069636,107.445946 C205.069636,105.236475 203.281765,103.445946 201.077058,103.445946 Z M34.436549,80.7449324 C32.2031874,80.7449324 30.3959531,82.5376117 30.3959531,84.7449324 C30.3959531,86.9522532 32.2031874,88.7449324 34.436549,88.7449324 C36.6699106,88.7449324 38.477145,86.9522532 38.477145,84.7449324 C38.477145,82.5376117 36.6699106,80.7449324 34.436549,80.7449324 Z M44.0018901,24 C46.7643577,24 49.0037801,26.2385763 49.0037801,29 C49.0037801,31.7614237 46.7643577,34 44.0018901,34 C41.2394225,34 39,31.7614237 39,29 L39.001,28.949 L10.0035236,28.9488237 C10.0036945,28.9658622 10.0037801,28.9829211 10.0037801,29 C10.0037801,31.7614237 7.76435767,34 5.00189007,34 C2.23942246,34 0,31.7614237 0,29 C0,26.2385763 2.23942246,24 5.00189007,24 C7.4082859,24 9.41778373,25.6986803 9.89583682,27.9619228 L9.91012426,27.9580223 L9.91012426,27.9580223 L10,27.9499605 L39.0049673,27.9499605 C39.0407034,27.9499605 39.0755638,27.9537095 39.1091768,27.9608358 C39.5859964,25.6986803 41.5954942,24 44.0018901,24 Z M5.00189007,25 C2.79162263,25 1,26.7909456 1,29 C1,31.2090544 2.79162263,33 5.00189007,33 C7.21215751,33 9.00378014,31.2090544 9.00378014,29 C9.00378014,26.7909456 7.21215751,25 5.00189007,25 Z M44.0018901,25 C41.7916226,25 40,26.7909456 40,29 C40,31.2090544 41.7916226,33 44.0018901,33 C46.2121575,33 48.0037801,31.2090544 48.0037801,29 C48.0037801,26.7909456 46.2121575,25 44.0018901,25 Z" id="链接左" fill="#1989FA" fill-rule="nonzero"></path>
                </g>
            </g>
        </g>
    </g>
</svg>