<?xml version="1.0" encoding="UTF-8"?>
<svg width="754px" height="500px" viewBox="0 0 754 500" version="1.1" xmlns="http://www.w3.org/2000/svg" xmlns:xlink="http://www.w3.org/1999/xlink">
    <title>背景右</title>
    <g id="页面-1" stroke="none" stroke-width="1" fill="none" fill-rule="evenodd">
        <g id="虚拟星空--light" transform="translate(-687.000000, -246.000000)">
            <g id="背景" transform="translate(0.000000, 80.000000)">
                <g id="背景右" transform="translate(687.000000, 166.000000)">
                    <path d="M617,351 L617,459 L509,459 L509,351 L617,351 Z M245,430 L245,459 L216,459 L216,430 L245,430 Z M476,290 L476,319 L447,319 L447,290 L476,290 Z M33,230 L33,263 L0,263 L0,230 L33,230 Z M368,197 L368,237 L328,237 L328,197 L368,197 Z M671,163 L671,217 L617,217 L617,163 L671,163 Z M543,41 L543,109 L475,109 L475,41 L543,41 Z M700,0 L700,29 L671,29 L671,0 L700,0 Z" id="方块-右" fill="#0F77FF" opacity="0.04"></path>
                    <path d="M714,452 C716.761424,452 719,454.251123 719,457.028024 C719,459.759929 716.833382,461.982957 714.133817,462.054282 L714.401754,489.013679 C716.975257,489.221689 719,491.387079 719,494.028024 C719,496.804925 716.761424,499.056048 714,499.056048 C711.238576,499.056048 709,496.804925 709,494.028024 C709,491.454496 710.922689,489.332553 713.402369,489.035545 L713.401803,489.023633 L713.132228,461.980594 C710.784433,461.567461 709,459.507299 709,457.028024 C709,454.251123 711.238576,452 714,452 Z M319.436959,383.959483 C322.198383,383.959483 324.436959,386.225024 324.436959,389.019711 C324.436959,391.814398 322.198383,394.079939 319.436959,394.079939 C318.363024,394.079939 317.368168,393.73728 316.553314,393.154099 L288.861782,420.845798 C289.57294,421.719871 290,422.839576 290,424.060228 C290,426.718088 287.975257,428.897348 285.401633,429.104368 L285.401633,451.016088 C287.975257,451.223108 290,453.402368 290,456.060228 C290,458.854915 287.761424,461.120456 285,461.120456 C284.194988,461.120456 283.434411,460.927921 282.760773,460.585869 L282.732386,460.637499 L282.732386,460.637499 L282.676099,460.708027 L253.899508,490.805951 C254.588016,491.673006 255,492.774535 255,493.973447 C255,496.768134 252.761424,499.033675 250,499.033675 C247.238576,499.033675 245,496.768134 245,493.973447 C245,491.17876 247.238576,488.913219 250,488.913219 C251.218248,488.913219 252.334735,489.354157 253.202143,490.086939 L281.921996,460.048267 C280.752022,459.122076 280,457.680032 280,456.060228 C280,453.470564 281.922174,451.335255 284.401373,451.035893 L284.401373,429.084563 C281.922174,428.785202 280,426.649893 280,424.060228 C280,421.265541 282.238576,419 285,419 C286.197419,419 287.296528,419.425989 288.157435,420.136391 L315.799909,392.492074 C314.95493,391.585898 314.436959,390.364022 314.436959,389.019711 C314.436959,386.225024 316.675536,383.959483 319.436959,383.959483 Z M423.765768,352.004464 C426.527192,352.004464 428.765768,354.256031 428.765768,357.033479 C428.765768,359.657161 426.768196,361.811578 424.219307,362.042084 L424.225551,362.104613 L424.225551,402.641639 C424.225551,402.739823 424.197251,402.831397 424.148363,402.908649 C426.730588,403.102984 428.765768,405.273149 428.765768,407.921414 C428.765768,410.172386 427.295419,412.077948 425.268039,412.719482 L471.488658,448.857929 C472.294323,447.167397 474.011618,446 476,446 C478.751801,446 480.984392,448.235902 480.999919,450.999999 L516,451 L516,451 C516,448.238576 518.225661,446 520.971152,446 C523.716644,446 525.942304,448.238576 525.942304,451 C525.942304,452.187236 525.530901,453.277827 524.843661,454.13542 L570.800661,491.100077 C571.701567,489.825276 573.18187,488.993619 574.855295,488.993619 C577.600787,488.993619 579.826448,491.232195 579.826448,493.993619 C579.826448,496.755042 577.600787,498.993619 574.855295,498.993619 C572.109804,498.993619 569.884143,496.755042 569.884143,493.993619 C569.884143,493.270004 570.036973,492.582292 570.311938,491.961355 C570.294844,491.956479 570.278095,491.948569 570.261702,491.93966 L570.186621,491.889607 L524.186621,454.889607 L524.144683,454.848738 C523.283726,455.567714 522.177631,456 520.971152,456 C518.566567,456 516.560734,454.282836 516.099681,452.001186 L481,452 C480.968235,452 480.937161,451.997038 480.907041,451.991375 C480.462479,454.308155 478.434413,456.058031 476,456.058031 C473.238576,456.058031 471,453.806464 471,451.029015 C471,450.623433 471.047735,450.229065 471.137863,449.851284 L423.934879,412.947607 C423.878738,412.949484 423.822363,412.950429 423.765768,412.950429 C421.004344,412.950429 418.765768,410.698862 418.765768,407.921414 C418.765768,405.299456 420.760715,403.146146 423.307205,402.913266 C423.271007,402.860198 423.245702,402.798157 423.233606,402.731515 L423.225551,402.641639 L423.225551,362.104613 L423.231028,362.034072 C420.721042,361.765662 418.765768,359.629235 418.765768,357.033479 C418.765768,354.256031 421.004344,352.004464 423.765768,352.004464 Z M606,452 C608.761424,452 611,454.230118 611,456.981108 C611,458.064408 610.65287,459.066939 610.063379,459.884327 L639.657371,489.948043 C640.480226,489.355093 641.491463,489.005598 642.584638,489.005598 C645.346062,489.005598 647.584638,491.235716 647.584638,493.986706 C647.584638,496.737696 645.346062,498.967814 642.584638,498.967814 C639.823215,498.967814 637.584638,496.737696 637.584638,493.986706 C637.584638,492.684564 638.086184,491.499122 638.907323,490.611644 L609.398974,460.634294 C608.506925,461.458396 607.312522,461.962216 606,461.962216 C603.238576,461.962216 601,459.732098 601,456.981108 C601,454.230118 603.238576,452 606,452 Z M714,490 C711.792116,490 710,491.802161 710,494.028024 C710,496.253888 711.792116,498.056048 714,498.056048 C716.207884,498.056048 718,496.253888 718,494.028024 C718,491.802161 716.207884,490 714,490 Z M250,489.913219 C247.793559,489.913219 246,491.728382 246,493.973447 C246,496.218512 247.793559,498.033675 250,498.033675 C252.206441,498.033675 254,496.218512 254,493.973447 C254,491.728382 252.206441,489.913219 250,489.913219 Z M574.855295,489.993619 C572.663388,489.993619 570.884143,491.783188 570.884143,493.993619 C570.884143,496.204049 572.663388,497.993619 574.855295,497.993619 C577.047203,497.993619 578.826448,496.204049 578.826448,493.993619 C578.826448,491.783188 577.047203,489.993619 574.855295,489.993619 Z M642.584638,490.005598 C640.374654,490.005598 638.584638,491.78885 638.584638,493.986706 C638.584638,496.184562 640.374654,497.967814 642.584638,497.967814 C644.794623,497.967814 646.584638,496.184562 646.584638,493.986706 C646.584638,491.78885 644.794623,490.005598 642.584638,490.005598 Z M714,453 C711.792116,453 710,454.802161 710,457.028024 C710,459.035728 711.458036,460.698714 713.364085,461.00541 C713.43917,460.958355 713.527468,460.931133 713.622178,460.930181 C713.750435,460.928918 713.867893,460.976053 713.957188,461.054569 C713.97058,461.055968 713.985281,461.056048 714,461.056048 C716.207884,461.056048 718,459.253888 718,457.028024 C718,454.802161 716.207884,453 714,453 Z M606,453 C603.790015,453 602,454.783252 602,456.981108 C602,459.178964 603.790015,460.962216 606,460.962216 C608.209985,460.962216 610,459.178964 610,456.981108 C610,454.783252 608.209985,453 606,453 Z M285,452 C282.793559,452 281,453.815164 281,456.060228 C281,458.305293 282.793559,460.120456 285,460.120456 C287.206441,460.120456 289,458.305293 289,456.060228 C289,453.815164 287.206441,452 285,452 Z M476,447 C473.79216,447 472,448.80256 472,451.029015 C472,453.25547 473.79216,455.058031 476,455.058031 C478.20784,455.058031 480,453.25547 480,451.029015 C480,448.80256 478.20784,447 476,447 Z M520.971152,447 C518.779245,447 517,448.78957 517,451 C517,453.21043 518.779245,455 520.971152,455 C523.163059,455 524.942304,453.21043 524.942304,451 C524.942304,448.78957 523.163059,447 520.971152,447 Z M393.007071,444.351379 C395.768495,444.351379 398.007071,446.598754 398.007071,449.371032 C398.007071,452.14331 395.768495,454.390685 393.007071,454.390685 C390.39407,454.390685 388.249223,452.378405 388.026206,449.813235 L388.007071,449.815097 L323.591018,449.815254 C323.367051,452.379461 321.222644,454.390685 318.610329,454.390685 C315.848905,454.390685 313.610329,452.14331 313.610329,449.371032 C313.610329,446.598754 315.848905,444.351379 318.610329,444.351379 C321.184596,444.351379 323.304486,446.304444 323.580014,448.815124 L388.007071,448.815097 L388.037056,448.818133 C388.311221,446.306004 390.431776,444.351379 393.007071,444.351379 Z M393.007071,445.351379 C390.798812,445.351379 389.007071,447.150163 389.007071,449.371032 C389.007071,451.591902 390.798812,453.390685 393.007071,453.390685 C395.21533,453.390685 397.007071,451.591902 397.007071,449.371032 C397.007071,447.150163 395.21533,445.351379 393.007071,445.351379 Z M318.610329,445.351379 C316.40207,445.351379 314.610329,447.150163 314.610329,449.371032 C314.610329,451.591902 316.40207,453.390685 318.610329,453.390685 C320.818588,453.390685 322.610329,451.591902 322.610329,449.371032 C322.610329,447.150163 320.818588,445.351379 318.610329,445.351379 Z M606,421 C608.761424,421 611,423.230118 611,425.981108 C611,428.533355 609.073189,430.637271 606.589658,430.927942 L606.589116,451.039773 C606.589116,451.315916 606.365258,451.539773 606.089116,451.539773 C605.843656,451.539773 605.639508,451.362898 605.597172,451.129649 L605.589116,451.039773 L605.589426,430.945664 C603.020055,430.737626 601,428.59438 601,425.981108 C601,423.230118 603.238576,421 606,421 Z M541.22573,242.493533 C543.964709,242.493533 546.18509,244.73211 546.18509,247.493533 C546.18509,249.873535 544.535728,251.865151 542.326529,252.369928 L542.326584,383.0135 C544.829519,383.198197 546.816555,385.255713 546.914903,387.802009 L588.862875,387.802735 C588.911967,387.802735 588.959406,387.80981 589.004229,387.822997 L589,388 C589,385.569309 590.720366,383.543724 593.000467,383.093387 L593.000467,343.906613 C590.720366,343.456276 589,341.430691 589,339 C589,336.238576 591.220381,334 593.95936,334 C596.545682,334 598.669603,335.995997 598.898322,338.543447 L643.927944,338.543552 C643.959709,338.543552 643.990782,338.546514 644.020903,338.552177 C644.244091,336.000722 646.369978,334 648.95936,334 C651.698339,334 653.91872,336.238576 653.91872,339 C653.91872,341.761424 651.698339,344 648.95936,344 L648.95,344 L649,427.001 L649.170944,427.004616 C651.628432,427.110361 653.622492,429.020379 653.88307,431.454209 L653.894816,431.453477 L753,431.453477 L753,432.453477 L653.891456,432.453822 C653.662426,434.999048 651.540177,436.993154 648.955965,436.993154 C646.218861,436.993154 644,434.75611 644,431.996577 C644,429.566678 645.720423,427.541899 648.000182,427.092839 L647.950542,344.000296 C647.950521,343.964921 647.954175,343.930399 647.961141,343.897092 C645.869188,343.467887 644.256394,341.708542 644.027819,339.53274 L644.017819,339.535496 L644.017819,339.535496 L643.927944,339.543552 L598.889733,339.543739 C598.622406,342.035927 596.538681,343.979011 594.000556,343.999831 L594,383.001 L594.174487,383.00462 C596.813663,383.118182 598.91872,385.311245 598.91872,388 C598.91872,390.761424 596.698339,393 593.95936,393 C591.477311,393 589.421129,391.161705 589.057209,388.761888 C589.025343,388.777173 588.989756,388.787963 588.95275,388.79468 L588.862875,388.802735 L546.862875,388.802735 C546.474721,391.182083 544.427614,393 541.95936,393 C539.220381,393 537,390.761424 537,388 C537,385.454853 538.886197,383.353861 541.326164,383.040371 L541.327069,252.49251 C541.293371,252.493191 541.25959,252.493533 541.22573,252.493533 C538.656747,252.493533 536.543986,250.524211 536.291623,248.001249 L485.985008,248.001249 C485.732644,250.524211 483.619883,252.493533 481.050901,252.493533 C478.481918,252.493533 476.369157,250.524211 476.116793,248.001249 L371.5,248 L371.448861,247.996239 C371.198796,250.521603 369.084938,252.493533 366.514256,252.493533 C363.775277,252.493533 361.554896,250.254957 361.554896,247.493533 C361.554896,244.73211 363.775277,242.493533 366.514256,242.493533 C369.089698,242.493533 371.206622,244.472772 371.450231,247.004861 L371.5,247 L476.11541,246.999847 C476.361329,244.47016 478.477158,242.493533 481.050901,242.493533 C483.624643,242.493533 485.740472,244.47016 485.986391,246.999847 L536.290239,246.999847 C536.536158,244.47016 538.651987,242.493533 541.22573,242.493533 Z M648.955965,428 C646.772981,428 645,429.78751 645,431.996577 C645,434.205644 646.772981,435.993154 648.955965,435.993154 C651.138948,435.993154 652.911929,434.205644 652.911929,431.996577 C652.911929,429.78751 651.138948,428 648.955965,428 Z M606,422 C603.790015,422 602,423.783252 602,425.981108 C602,428.044394 603.577529,429.742293 605.599101,429.942475 C605.643765,429.712983 605.846213,429.539773 606.089116,429.539773 C606.324348,429.539773 606.52164,429.702216 606.574934,429.921044 C608.511531,429.644746 610,427.985307 610,425.981108 C610,423.783252 608.209985,422 606,422 Z M285,420 C282.793559,420 281,421.815164 281,424.060228 C281,426.305293 282.793559,428.120456 285,428.120456 C287.206441,428.120456 289,426.305293 289,424.060228 C289,421.815164 287.206441,420 285,420 Z M423.765768,403.892399 C421.557928,403.892399 419.765768,405.694959 419.765768,407.921414 C419.765768,410.147869 421.557928,411.950429 423.765768,411.950429 C425.973607,411.950429 427.765768,410.147869 427.765768,407.921414 C427.765768,405.694959 425.973607,403.892399 423.765768,403.892399 Z M319.436959,384.959483 C317.230518,384.959483 315.436959,386.774646 315.436959,389.019711 C315.436959,391.264775 317.230518,393.079939 319.436959,393.079939 C321.6434,393.079939 323.436959,391.264775 323.436959,389.019711 C323.436959,386.774646 321.6434,384.959483 319.436959,384.959483 Z M593.95936,384 C591.774501,384 590,385.789042 590,388 C590,390.210958 591.774501,392 593.95936,392 C596.144219,392 597.91872,390.210958 597.91872,388 C597.91872,385.789042 596.144219,384 593.95936,384 Z M541.95936,384 C539.774501,384 538,385.789042 538,388 C538,390.210958 539.774501,392 541.95936,392 C544.144219,392 545.91872,390.210958 545.91872,388 C545.91872,385.789042 544.144219,384 541.95936,384 Z M704,273 C706.761424,273 709,275.228771 709,277.9781 C709,280.479567 707.146861,282.550105 704.732851,282.903107 L704.626501,355.038701 C707.092219,355.345578 709,357.440022 709,359.9781 C709,361.179772 708.572348,362.281998 707.860305,363.142145 L729.003186,378.299595 C729.920061,377.181473 731.315439,376.467578 732.878289,376.467578 C735.639713,376.467578 737.878289,378.69635 737.878289,381.445678 L737.873,381.659 L753,381.659675 L753,382.659675 L737.728591,382.659534 C737.184325,384.822167 735.219168,386.423778 732.878289,386.423778 C730.116866,386.423778 727.878289,384.195007 727.878289,381.445678 C727.878289,380.610831 728.0847,379.823982 728.449484,379.132961 L707.208691,363.906373 L707.143437,363.849574 C706.284629,364.541648 705.190939,364.9562 704,364.9562 C701.238576,364.9562 699,362.727429 699,359.9781 C699,357.353955 701.039362,355.204042 703.626211,355.013701 L703.732001,282.949171 C701.095181,282.810519 699,280.637916 699,277.9781 C699,275.228771 701.238576,273 704,273 Z M732.878289,377.467578 C731.523502,377.467578 730.326624,378.137198 729.603136,379.16133 C729.58927,379.209042 729.566502,379.254433 729.5362,379.296704 C729.514118,379.327509 729.489182,379.355056 729.462011,379.379243 C729.091044,379.980627 728.878289,380.688547 728.878289,381.445678 C728.878289,383.641737 730.66817,385.423778 732.878289,385.423778 C735.088409,385.423778 736.878289,383.641737 736.878289,381.445678 C736.878289,379.249619 735.088409,377.467578 732.878289,377.467578 Z M704,356 C701.789881,356 700,357.782041 700,359.9781 C700,362.174159 701.789881,363.9562 704,363.9562 C706.210119,363.9562 708,362.174159 708,359.9781 C708,357.782041 706.210119,356 704,356 Z M423.765768,353.004464 C421.557928,353.004464 419.765768,354.807024 419.765768,357.033479 C419.765768,359.259934 421.557928,361.062494 423.765768,361.062494 C425.973607,361.062494 427.765768,359.259934 427.765768,357.033479 C427.765768,354.807024 425.973607,353.004464 423.765768,353.004464 Z M648.95936,335 C646.774501,335 645,336.789042 645,339 C645,341.210958 646.774501,343 648.95936,343 C651.144219,343 652.91872,341.210958 652.91872,339 C652.91872,336.789042 651.144219,335 648.95936,335 Z M593.95936,335 C591.774501,335 590,336.789042 590,339 C590,341.210958 591.774501,343 593.95936,343 C596.144219,343 597.91872,341.210958 597.91872,339 C597.91872,336.789042 596.144219,335 593.95936,335 Z M704,274 C701.789881,274 700,275.782041 700,277.9781 C700,280.174159 701.789881,281.9562 704,281.9562 C706.210119,281.9562 708,280.174159 708,277.9781 C708,275.782041 706.210119,274 704,274 Z M679.847843,158.110335 C682.609267,158.110335 684.847843,160.375877 684.847843,163.170564 C684.847843,165.96525 682.609267,168.230792 679.847843,168.230792 C678.636227,168.230792 677.525266,167.794641 676.659887,167.069012 L649.871647,196.834482 L649.860974,196.844805 C650.572616,197.719023 651,198.839114 651,200.060228 C651,202.718088 648.975257,204.897348 646.401633,205.104368 L646.401633,226.016088 C648.975257,226.223108 651,228.402368 651,231.060228 C651,233.854915 648.761424,236.120456 646,236.120456 C644.837295,236.120456 643.767284,235.718809 642.918038,235.04513 L614.871217,265.835164 C615.216343,266.522569 615.410884,267.300442 615.410884,268.1243 C615.410884,270.918987 613.172308,273.184528 610.410884,273.184528 C607.64946,273.184528 605.410884,270.918987 605.410884,268.1243 C605.410884,265.329613 607.64946,263.064072 610.410884,263.064072 C611.98995,263.064072 613.398051,263.804881 614.314373,264.961824 L642.199033,234.347988 C641.451477,233.463633 641,232.31529 641,231.060228 C641,228.470564 642.922174,226.335255 645.401373,226.035893 L645.401373,205.084563 C642.922174,204.785202 641,202.649893 641,200.060228 C641,197.265541 643.238576,195 646,195 C647.196956,195 648.295678,195.42566 649.156436,196.135568 L675.959516,166.352088 C675.26429,165.482901 674.847843,164.375951 674.847843,163.170564 C674.847843,160.375877 677.08642,158.110335 679.847843,158.110335 Z M610.410884,264.064072 C608.204443,264.064072 606.410884,265.879235 606.410884,268.1243 C606.410884,270.369364 608.204443,272.184528 610.410884,272.184528 C612.617325,272.184528 614.410884,270.369364 614.410884,268.1243 C614.410884,265.879235 612.617325,264.064072 610.410884,264.064072 Z M541.22573,243.493533 C539.040871,243.493533 537.26637,245.282576 537.26637,247.493533 C537.26637,249.704491 539.040871,251.493533 541.22573,251.493533 C543.410589,251.493533 545.18509,249.704491 545.18509,247.493533 C545.18509,245.282576 543.410589,243.493533 541.22573,243.493533 Z M481.050901,243.493533 C478.866042,243.493533 477.091541,245.282576 477.091541,247.493533 C477.091541,249.704491 478.866042,251.493533 481.050901,251.493533 C483.204973,251.493533 484.96017,249.754554 485.009207,247.586741 C485.00258,247.558694 485,247.529648 485,247.5 L485.008056,247.410124 L485.008056,247.410124 L485.01026,247.493533 C485.01026,245.282576 483.235759,243.493533 481.050901,243.493533 Z M366.514256,243.493533 C364.329397,243.493533 362.554896,245.282576 362.554896,247.493533 C362.554896,249.704491 364.329397,251.493533 366.514256,251.493533 C368.699115,251.493533 370.473616,249.704491 370.473616,247.493533 C370.473616,245.282576 368.699115,243.493533 366.514256,243.493533 Z M646,227 C643.793559,227 642,228.815164 642,231.060228 C642,233.305293 643.793559,235.120456 646,235.120456 C648.206441,235.120456 650,233.305293 650,231.060228 C650,228.815164 648.206441,227 646,227 Z M684.78805,211.056656 C687.358042,211.056656 689.473386,213.010891 689.740113,215.519915 L753,215.520373 L753,216.520373 L689.747351,216.52024 C689.514374,219.064331 687.382967,221.056656 684.78805,221.056656 C682.037438,221.056656 679.807626,218.818079 679.807626,216.056656 C679.807626,213.295232 682.037438,211.056656 684.78805,211.056656 Z M684.78805,212.056656 C682.590603,212.056656 680.807626,213.84664 680.807626,216.056656 C680.807626,218.266671 682.590603,220.056656 684.78805,220.056656 C686.985497,220.056656 688.768474,218.266671 688.768474,216.056656 C688.768474,213.84664 686.985497,212.056656 684.78805,212.056656 Z M646,196 C643.793559,196 642,197.815164 642,200.060228 C642,202.305293 643.793559,204.120456 646,204.120456 C648.206441,204.120456 650,202.305293 650,200.060228 C650,197.815164 648.206441,196 646,196 Z M679.847843,159.110335 C677.641402,159.110335 675.847843,160.925499 675.847843,163.170564 C675.847843,165.415628 677.641402,167.230792 679.847843,167.230792 C682.054284,167.230792 683.847843,165.415628 683.847843,163.170564 C683.847843,160.925499 682.054284,159.110335 679.847843,159.110335 Z M704.646757,82 C707.408181,82 709.646757,84.2707642 709.646757,87.0718938 C709.646757,88.1816481 709.295392,89.2081566 708.699352,90.0431937 C708.716587,90.0488378 708.733011,90.0571038 708.74906,90.066346 L708.822885,90.1182343 L753.015047,127.494574 L753.011158,128.800988 L708.177115,90.8817657 C708.135792,90.8468162 708.101555,90.8065984 708.074557,90.7629324 C707.180844,91.6190463 705.974212,92.1437875 704.646757,92.1437875 C701.885334,92.1437875 699.646757,89.8730234 699.646757,87.0718938 C699.646757,84.2707642 701.885334,82 704.646757,82 Z M704.646757,83 C702.440839,83 700.646757,84.8198785 700.646757,87.0718938 C700.646757,89.323909 702.440839,91.1437875 704.646757,91.1437875 C706.852675,91.1437875 708.646757,89.323909 708.646757,87.0718938 C708.646757,84.8198785 706.852675,83 704.646757,83 Z" id="链接-右" fill="#1989FA" fill-rule="nonzero"></path>
                </g>
            </g>
        </g>
    </g>
</svg>