<?xml version="1.0" encoding="UTF-8"?>
<svg width="259px" height="50px" viewBox="0 0 259 50" version="1.1" xmlns="http://www.w3.org/2000/svg" xmlns:xlink="http://www.w3.org/1999/xlink">
    <title>JOINUS备份 2</title>
    <g id="页面-1" stroke="none" stroke-width="1" fill="none" fill-rule="evenodd" opacity="0.4">
        <g id="虚拟星空--light" transform="translate(-493.000000, -2412.000000)" fill-rule="nonzero" stroke="#1989FA">
            <g id="编组-16" transform="translate(-85.000000, 2413.000000)">
                <g id="编组-10" transform="translate(0.000000, 0.285991)">
                    <path d="M593.036193,48 C598.456184,48 602.374249,46.647585 604.855691,43.9427549 C607.075928,41.3667263 608.186047,37.5026834 608.186047,32.2218247 L608.186047,1.11627907 L600.545819,1.11627907 L600.545819,31.9642218 C600.545819,35.2486583 599.958109,37.6314848 598.782689,39.1127013 C597.607269,40.5939177 595.713538,41.3667263 593.166795,41.3667263 C588.530417,41.3667263 586.244879,38.726297 586.244879,33.4454383 L586.244879,32.0286225 L578.604651,32.0286225 L578.604651,33.509839 C578.604651,38.0178891 579.845372,41.5599284 582.326813,44.1359571 C584.742954,46.7119857 588.334514,48 593.036193,48 Z M638.013987,48 C645.104367,48 650.698611,45.7358491 654.796721,41.2075472 C658.699682,36.8733154 660.651163,31.180593 660.651163,24.06469 C660.651163,16.9487871 658.699682,11.1913747 654.796721,6.85714286 C650.698611,2.26415094 645.104367,0 638.013987,0 C630.858558,0 625.264313,2.26415094 621.231253,6.92183288 C617.328292,11.3207547 615.44186,17.0134771 615.44186,24.06469 C615.44186,31.0512129 617.328292,36.7439353 621.231253,41.1428571 C625.264313,45.671159 630.858558,48 638.013987,48 Z M638.046512,41.3023256 C633.287765,41.3023256 629.557937,39.6883027 626.985642,36.5248178 C624.477654,33.4258938 623.255814,29.2939951 623.255814,24.0645609 C623.255814,18.7705658 624.477654,14.6386671 626.985642,11.5397431 C629.622245,8.31169733 633.287765,6.69767442 638.046512,6.69767442 C642.805258,6.69767442 646.470779,8.18257549 649.043074,11.2814995 C651.551062,14.3804235 652.837209,18.6414439 652.837209,24.0645609 C652.837209,29.4876779 651.551062,33.6841375 649.043074,36.7185005 C646.470779,39.7528636 642.805258,41.3023256 638.046512,41.3023256 Z M675.162791,47.4418605 L675.162791,1.11627907 L667.348837,1.11627907 L667.348837,47.4418605 L675.162791,47.4418605 Z M691.704274,47.4418605 L691.704274,13.5735783 L691.964488,13.5735783 L715.188561,47.4418605 L722.604651,47.4418605 L722.604651,1.11627907 L714.928347,1.11627907 L714.928347,34.5303889 L714.668133,34.5303889 L691.704274,1.11627907 L684.093023,1.11627907 L684.093023,47.4418605 L691.704274,47.4418605 Z M772,48 C778.094433,48 782.827343,46.4543828 786.198732,43.3631485 C789.57012,40.2075134 791.255814,35.6350626 791.255814,29.6457961 L791.255814,1.11627907 L783.67019,1.11627907 L783.67019,29.7745975 C783.67019,33.7674419 782.697674,36.6654741 780.882311,38.5974955 C779.002114,40.4651163 776.019732,41.431127 772,41.431127 C767.915433,41.431127 764.933051,40.4651163 763.117689,38.5974955 C761.237491,36.6654741 760.32981,33.7674419 760.32981,29.7745975 L760.32981,1.11627907 L752.744186,1.11627907 L752.744186,29.6457961 C752.744186,35.6350626 754.42988,40.2075134 757.866103,43.4275492 C761.107822,46.4543828 765.840733,48 772,48 Z M817.476095,48 C823.320033,48 827.879589,46.7708895 831.090544,44.4420485 C834.301499,42.0485175 835.906977,38.7493261 835.906977,34.6091644 C835.906977,30.3396226 833.916185,27.0404313 829.9346,24.6469003 C828.136466,23.6118598 824.154881,22.0592992 817.925629,20.1185984 C813.687168,18.7601078 811.054185,17.7897574 810.090898,17.2722372 C807.907449,16.1078167 806.879943,14.490566 806.879943,12.5498652 C806.879943,10.3504043 807.779011,8.73315364 809.705584,7.76280323 C811.246842,6.92183288 813.430292,6.53369272 816.320151,6.53369272 C819.659544,6.53369272 822.228308,7.11590296 823.898005,8.4097035 C825.567702,9.63881402 826.787864,11.7088949 827.430055,14.5552561 L834.879471,14.5552561 C834.429937,9.50943396 832.567584,5.7574124 829.356628,3.3638814 C826.338331,1.09973046 822.09987,0 816.705466,0 C811.760595,0 807.714792,1.09973046 804.503837,3.3638814 C801.036005,5.69272237 799.366309,8.92722372 799.366309,13.0026954 C799.366309,17.0781671 801.100224,20.1832884 804.632275,22.3180593 C805.980876,23.0943396 809.512926,24.3881402 815.164207,26.1994609 C820.237516,27.7520216 823.191595,28.787062 824.090662,29.2398922 C826.916303,30.6630728 828.393342,32.6037736 828.393342,35.0619946 C828.393342,37.0026954 827.365836,38.490566 825.439263,39.6549865 C823.51269,40.754717 820.815488,41.3369272 817.476095,41.3369272 C813.687168,41.3369272 810.925747,40.6253369 809.127612,39.3315364 C807.13682,37.8436658 805.916657,35.3207547 805.402904,31.8274933 L797.953488,31.8274933 C798.274584,37.7142857 800.393814,41.9838275 804.24696,44.7008086 C807.393696,46.9002695 811.824814,48 817.476095,48 Z" id="JOINUS备份-2"></path>
                </g>
            </g>
        </g>
    </g>
</svg>