<?xml version="1.0" encoding="UTF-8"?>
<svg width="291px" height="50px" viewBox="0 0 291 50" version="1.1" xmlns="http://www.w3.org/2000/svg" xmlns:xlink="http://www.w3.org/1999/xlink">
    <title>join us</title>
    <g id="页面-1" stroke="none" stroke-width="1" fill="none" fill-rule="evenodd">
        <g id="join-us" transform="translate(1.000000, 1.000000)">
            <rect id="矩形" x="0" y="0" width="290" height="48"></rect>
            <path d="M14.4706727,48.1301518 C19.9053598,48.1301518 23.8340492,46.7740697 26.3222192,44.0619056 C28.5484765,41.478892 29.6616052,37.6043718 29.6616052,32.3091941 L29.6616052,1.11930586 L22.0006608,1.11930586 L22.0006608,32.0508927 C22.0006608,35.3442349 21.4113574,37.7335224 20.2327506,39.2187552 C19.0541437,40.703988 17.1552772,41.478892 14.6016291,41.478892 C9.95267989,41.478892 7.66094439,38.8313032 7.66094439,33.5361255 L7.66094439,32.115468 L0,32.115468 L0,33.6007008 C0,38.1209745 1.24408499,41.6726181 3.73225496,44.2556316 C6.15494678,46.8386451 9.75624542,48.1301518 14.4706727,48.1301518 Z M59.570424,48.1301518 C66.6800293,48.1301518 72.2894427,45.8598617 76.3986641,41.3192813 C80.3122084,36.9732972 82.2689805,31.2651391 82.2689805,24.1299414 C82.2689805,16.9947436 80.3122084,11.22172 76.3986641,6.87573598 C72.2894427,2.27029018 66.6800293,0 59.570424,0 C52.3955929,0 46.7861796,2.27029018 42.7421839,6.94060141 C38.8286396,11.3514509 36.9370933,17.0596091 36.9370933,24.1299414 C36.9370933,31.1354082 38.8286396,36.8435664 42.7421839,41.2544159 C46.7861796,45.7949962 52.3955929,48.1301518 59.570424,48.1301518 Z M59.6030369,41.4143167 C54.8313873,41.4143167 51.0914458,39.7959174 48.5121758,36.6238547 C45.9973875,33.516528 44.7722343,29.3734257 44.7722343,24.1298119 C44.7722343,18.8214621 45.9973875,14.6783598 48.5121758,11.5710331 C51.1559276,8.33423447 54.8313873,6.71583514 59.6030369,6.71583514 C64.3746864,6.71583514 68.0501462,8.20476252 70.6294162,11.3120892 C73.1442045,14.4194159 74.4338395,18.6919902 74.4338395,24.1298119 C74.4338395,29.5676336 73.1442045,33.7754719 70.6294162,36.8180626 C68.0501462,39.8606533 64.3746864,41.4143167 59.6030369,41.4143167 Z M96.8199566,47.5704989 L96.8199566,1.11930586 L88.9848156,1.11930586 L88.9848156,47.5704989 L96.8199566,47.5704989 Z M113.406292,47.5704989 L113.406292,13.610383 L113.667211,13.610383 L136.954256,47.5704989 L144.390456,47.5704989 L144.390456,1.11930586 L136.693337,1.11930586 L136.693337,34.6240179 L136.432418,34.6240179 L113.406292,1.11930586 L105.774403,1.11930586 L105.774403,47.5704989 L113.406292,47.5704989 Z M193.91974,48.1301518 C200.030697,48.1301518 204.776441,46.5803437 208.156971,43.4807275 C211.537501,40.316536 213.227766,35.731687 213.227766,29.7261805 L213.227766,1.11930586 L205.621574,1.11930586 L205.621574,29.8553312 C205.621574,33.8590022 204.646421,36.7648924 202.826136,38.7021525 C200.94084,40.5748373 197.950371,41.5434674 193.91974,41.5434674 C189.824098,41.5434674 186.833629,40.5748373 185.013344,38.7021525 C183.128048,36.7648924 182.217906,33.8590022 182.217906,29.8553312 L182.217906,1.11930586 L174.611714,1.11930586 L174.611714,29.7261805 C174.611714,35.731687 176.301979,40.316536 179.747519,43.5453029 C182.998028,46.5803437 187.743772,48.1301518 193.91974,48.1301518 Z M239.519143,48.1301518 C245.378927,48.1301518 249.950846,46.8977086 253.170508,44.562553 C256.390169,42.1625319 258,38.8543948 258,34.7030071 C258,30.4218884 256.00381,27.1137513 252.01143,24.7137303 C250.208419,23.6758833 246.216039,22.1191129 239.969896,20.1731499 C235.719942,18.8109758 233.07982,17.8379943 232.113921,17.3190708 C229.924552,16.151493 228.89426,14.5298572 228.89426,12.5838941 C228.89426,10.3784694 229.795765,8.75683356 231.727562,7.78385205 C233.273,6.94060141 235.462369,6.55140881 238.360065,6.55140881 C241.708513,6.55140881 244.284242,7.13519771 245.958466,8.43250639 C247.63269,9.66494963 248.856161,11.7406435 249.500094,14.5947226 L256.969708,14.5947226 C256.518956,9.53521876 254.651552,5.7730236 251.431891,3.37300256 C248.405409,1.10271237 244.155455,0 238.746424,0 C233.788145,0 229.731372,1.10271237 226.51171,3.37300256 C223.034476,5.70815817 221.360252,8.95142986 221.360252,13.0379522 C221.360252,17.1244745 223.098869,20.2380153 226.640497,22.3785746 C227.992755,23.1569598 231.534382,24.4542685 237.200987,26.2705007 C242.288052,27.8272711 245.25014,28.865118 246.151646,29.3191761 C248.984948,30.7462156 250.465992,32.6921786 250.465992,35.1570651 C250.465992,37.1030281 249.4357,38.5949331 247.503903,39.7625109 C245.572107,40.8652233 242.867591,41.4490122 239.519143,41.4490122 C235.719942,41.4490122 232.951033,40.7354924 231.148023,39.4381837 C229.151833,37.9462787 227.928361,35.4165268 227.413216,31.9137934 L219.943601,31.9137934 C220.265567,37.8165479 222.390544,42.0976665 226.254137,44.8220147 C229.409406,47.0274395 233.852539,48.1301518 239.519143,48.1301518 Z" id="JOINUS备份-3" stroke="#1989FA" opacity="0.4" fill-rule="nonzero"></path>
        </g>
    </g>
</svg>