<?xml version="1.0" encoding="UTF-8"?>
<svg width="596px" height="137px" viewBox="0 0 596 137" version="1.1" xmlns="http://www.w3.org/2000/svg" xmlns:xlink="http://www.w3.org/1999/xlink">
    <title>专注提供音乐文化行业解决方案</title>
    <g id="页面-1" stroke="none" stroke-width="1" fill="none" fill-rule="evenodd">
        <g id="虚拟星空--light" transform="translate(-117.000000, -362.000000)" fill="#1989FA" fill-rule="nonzero">
            <g id="编组-27" transform="translate(117.000000, 362.000000)">
                <path d="M45.4083885,57 L48.4437086,47.1054313 C47.1486387,46.7816826 45.7625092,46.4376997 44.2853201,46.0734824 C42.808131,45.7092652 41.2803532,45.3450479 39.7019868,44.9808307 L39.7019868,44.9808307 L50.2649007,38.7284345 L50.2649007,29.0766773 L20.1545254,29.0766773 C20.5187638,28.4696486 20.8728845,27.8525027 21.2168874,27.2252396 C21.5608904,26.5979766 21.915011,25.9808307 22.2792494,25.3738019 L22.2792494,25.3738019 L55,25.3738019 L55,16.5111821 L26.589404,16.5111821 C26.8727005,15.9446219 27.1357616,15.3679446 27.3785872,14.7811502 C27.6214128,14.1943557 27.8642384,13.5974441 28.107064,12.9904153 L28.107064,12.9904153 L51.9646799,12.9904153 L51.9646799,4.49201278 L31.3245033,4.49201278 C31.526858,3.84451544 31.7494481,3.1970181 31.9922737,2.54952077 C32.2350993,1.90202343 32.4576895,1.2342918 32.6600442,0.546325879 L32.6600442,0.546325879 L21.004415,0 C20.7615894,0.768903088 20.5187638,1.52768903 20.2759382,2.27635783 C20.0331126,3.02502662 19.7700515,3.76357827 19.486755,4.49201278 L19.486755,4.49201278 L3.03532009,4.49201278 L3.03532009,12.9904153 L16.0264901,12.9904153 C15.7431935,13.5974441 15.4700147,14.1943557 15.2069536,14.7811502 C14.9438926,15.3679446 14.6504783,15.9446219 14.3267108,16.5111821 L14.3267108,16.5111821 L0,16.5111821 L0,25.3738019 L9.40949227,25.3738019 C8.88337013,26.1831736 8.36736571,26.972311 7.86147903,27.7412141 C7.35559235,28.5101171 6.83958793,29.2587859 6.31346578,29.9872204 L6.31346578,29.9872204 L6.31346578,37.4536741 L37.3951435,37.4536741 L28.0463576,42.3099042 C24.5658572,41.5005325 21.1966519,40.7822151 17.9387417,40.1549521 C14.6808315,39.527689 11.736571,38.9914803 9.10596026,38.5463259 L9.10596026,38.5463259 L5.76710817,47.4089457 C8.80242826,48.0159744 12.0502208,48.7039404 15.5104857,49.4728435 C18.9707506,50.2417465 22.4411332,51.0410011 25.9216336,51.870607 C29.4021339,52.700213 32.8118102,53.5500532 36.1506623,54.4201278 C39.4895143,55.2902023 42.5754231,56.1501597 45.4083885,57 L45.4083885,57 Z M116,55 L116,45.630531 L101.102484,45.630531 L101.102484,36.7477876 L112.548137,36.7477876 L112.548137,27.3174779 L101.102484,27.3174779 L101.102484,18.9214602 L113.759317,18.9214602 L113.759317,9.43030973 L102.495342,9.43030973 C102.253106,8.74078171 101.960404,7.91943215 101.617236,6.96626106 C101.274068,6.01308997 100.930901,5.08019912 100.587733,4.1675885 C100.244565,3.25497788 99.931677,2.4234882 99.6490683,1.67311947 C99.3664596,0.922750737 99.1444099,0.365044248 98.9829193,0 L98.9829193,0 L89.1118012,1.03429204 C89.2329193,1.31821534 89.3944099,1.76438053 89.5962733,2.37278761 C89.6770186,2.61615044 89.7626087,2.87411504 89.8530435,3.14668142 L90.138882,4.00818584 L90.138882,4.00818584 L90.2927019,4.47179204 C90.5551242,5.26272124 90.8175466,6.09421091 91.0799689,6.96626106 C91.3423913,7.83831121 91.5947205,8.65966077 91.8369565,9.43030973 L91.8369565,9.43030973 L78.3928571,9.43030973 L78.3928571,18.9214602 L91.0496894,18.9214602 L91.0496894,27.3174779 L79.5434783,27.3174779 L79.5434783,36.7477876 L91.0496894,36.7477876 L91.0496894,45.630531 L77,45.630531 L77,55 L116,55 Z M73.2727273,15 L78,6.67322835 C77.4747475,6.27952756 76.7474747,5.77755906 75.8181818,5.16732283 C74.8888889,4.55708661 73.8989899,3.92716535 72.8484848,3.27755906 C71.7979798,2.62795276 70.7575758,2.00787402 69.7272727,1.41732283 C68.6969697,0.826771654 67.8181818,0.354330709 67.0909091,0 L67.0909091,0 L62,7.61811024 C62.8080808,8.09055118 63.7373737,8.66141732 64.7878788,9.33070866 C65.8383838,10 66.8888889,10.6791339 67.9393939,11.3681102 C68.989899,12.0570866 69.989899,12.7165354 70.9393939,13.3464567 C71.8888889,13.976378 72.6666667,14.5275591 73.2727273,15 L73.2727273,15 Z M71.5797101,31 L77,22.5789474 C76.2608696,21.9774436 75.4190821,21.3458647 74.4746377,20.6842105 C73.5301932,20.0225564 72.544686,19.3609023 71.5181159,18.6992481 C70.4915459,18.037594 69.4444444,17.39599 68.3768116,16.7744361 C67.3091787,16.1528822 66.3031401,15.5614035 65.3586957,15 L65.3586957,15 L60,23 C60.7801932,23.4411028 61.6733092,23.9824561 62.6793478,24.6240602 C63.6853865,25.2656642 64.7119565,25.9473684 65.759058,26.6691729 C66.8061594,27.3909774 67.8327295,28.1328321 68.8387681,28.8947368 C69.8448068,29.6566416 70.7584541,30.358396 71.5797101,31 L71.5797101,31 Z M70.1343284,56 C70.5323383,55.0063234 71.0497512,53.6946703 71.6865672,52.0650407 C72.3233831,50.435411 72.9800995,48.736224 73.6567164,46.9674797 C74.3333333,45.1987353 74.9701493,43.4896116 75.5671642,41.8401084 C76.1641791,40.1906052 76.641791,38.8491418 77,37.8157182 L77,37.8157182 L68.2238806,34 C67.9054726,35.0731707 67.4577114,36.4146341 66.880597,38.0243902 C66.3034826,39.6341463 65.6666667,41.303523 64.9701493,43.0325203 C64.2736318,44.7615176 63.5771144,46.4408311 62.880597,48.0704607 C62.1840796,49.7000903 61.5572139,51.0514905 61,52.1246612 L61,52.1246612 L70.1343284,56 Z M124.342857,56 L127.419048,55.6992481 C128.786243,55.5789474 129.962434,55.4385965 130.947619,55.2781955 C131.932804,55.1177945 132.757143,54.877193 133.420635,54.556391 C134.084127,54.235589 134.596825,53.8045113 134.95873,53.2631579 C135.320635,52.7218045 135.582011,52.0100251 135.742857,51.1278195 L135.742857,51.1278195 L142.860317,55.9398496 C143.865608,54.6566416 144.750265,53.4235589 145.514286,52.2406015 C146.278307,51.0576441 146.941799,49.8245614 147.504762,48.5413534 C148.268783,49.7042607 149.12328,50.6666667 150.068254,51.4285714 C151.013228,52.1904762 152.048677,52.8120301 153.174603,53.2932331 C154.300529,53.7744361 155.526984,54.1253133 156.853968,54.3458647 C158.180952,54.566416 159.608466,54.716792 161.136508,54.7969925 C165.84127,55.037594 170.566138,55.037594 175.311111,54.7969925 L175.311111,54.7969925 L177,46.1353383 C174.386243,46.2556391 171.973545,46.3157895 169.761905,46.3157895 C167.550265,46.3157895 165.298413,46.2756892 163.006349,46.1954887 L163.006349,46.1954887 L163.006349,43.0676692 L173.260317,43.0676692 L173.260317,36.2105263 L163.006349,36.2105263 L163.006349,33.2030075 L175.371429,33.2030075 L175.371429,25.5639098 L140.628571,25.5639098 L140.628571,33.2030075 L154.2,33.2030075 L154.2,44.6315789 C152.591534,43.7493734 151.26455,42.0651629 150.219048,39.5789474 C150.299471,38.9774436 150.4,38.3558897 150.520635,37.7142857 C150.64127,37.0726817 150.741799,36.4110276 150.822222,35.7293233 L150.822222,35.7293233 L142.498413,34.3458647 C142.337566,35.9097744 142.106349,37.3533835 141.804762,38.6766917 C141.503175,40 141.091005,41.273183 140.568254,42.4962406 C140.045503,43.7192982 139.402116,44.9122807 138.638095,46.075188 C137.874074,47.2380952 136.949206,48.4411028 135.863492,49.6842105 C135.903704,49.443609 135.92381,49.2130326 135.92381,48.9924812 L135.92381,48.9924812 L135.92381,34.3458647 C136.486772,34.1854637 137.019577,34.0451128 137.522222,33.924812 C138.024868,33.8045113 138.497354,33.6842105 138.939683,33.5639098 L138.939683,33.5639098 L138.819048,23.8195489 C138.37672,23.9398496 137.914286,24.0601504 137.431746,24.1804511 C136.949206,24.3007519 136.446561,24.4411028 135.92381,24.6015038 L135.92381,24.6015038 L135.92381,18.2857143 L139.844444,18.2857143 L139.844444,8.84210526 L135.92381,8.84210526 L135.92381,0.240601504 L126.936508,0 L126.936508,8.84210526 L122.111111,8.84210526 L122.111111,18.2857143 L126.936508,18.2857143 L126.936508,26.7067669 C125.649735,27.0275689 124.413228,27.3182957 123.226984,27.5789474 C122.040741,27.839599 120.965079,28.0701754 120,28.2706767 L120,28.2706767 L120.784127,38.1353383 C121.548148,37.9348371 122.462963,37.6942356 123.528571,37.4135338 C124.59418,37.1328321 125.730159,36.8320802 126.936508,36.5112782 L126.936508,36.5112782 L126.936508,43.3082707 C126.936508,44.3909774 126.685185,45.0927318 126.18254,45.4135338 C125.679894,45.7343358 124.90582,45.9548872 123.860317,46.075188 L123.860317,46.075188 L121.568254,46.3759398 L124.342857,56 Z M173,24 L173,1 L142,1 L142,24 L173,24 Z M163,10 L151,10 L151,8 L163,8 L163,10 Z M163,18 L151,18 L151,16 L163,16 L163,18 Z M194.316832,56 L194.316832,13.5793991 C195.069307,11.6967096 195.752475,9.79399142 196.366337,7.87124464 C196.980198,5.94849785 197.524752,3.96566524 198,1.92274678 L198,1.92274678 L188.970297,0 C188.019802,4.48640916 186.772277,8.4620887 185.227723,11.9270386 C183.683168,15.3919886 181.940594,18.6466381 180,21.6909871 L180,21.6909871 L181.544554,35.4506438 L181.544554,35.4506438 L183.564356,32.6866953 C184.237624,31.7653791 184.891089,30.8440629 185.524752,29.9227468 L185.524752,29.9227468 L185.524752,56 L194.316832,56 Z M235,38 L235,28.6225806 L229.135433,28.6225806 L229.135433,18.2645161 L233.862992,18.2645161 L233.862992,9.25483871 L229.135433,9.25483871 L229.135433,0.24516129 L219.500787,0 L219.500787,9.25483871 L213.15748,9.25483871 L213.15748,0.24516129 L203.223622,0 L203.223622,9.25483871 L198.43622,9.25483871 L198.43622,18.2645161 L203.223622,18.2645161 L203.223622,28.6225806 L197,28.6225806 L197,38 L235,38 Z M219,28 L213,28 L213,18 L219,18 L219,28 Z M201.859425,56 C204.00426,54.0130719 206.138978,51.8916122 208.263578,49.6356209 C210.388179,47.3796296 212.300319,45.1960784 214,43.0849673 L214,43.0849673 L206.958466,37 C206.230032,37.9934641 205.390309,39.0283224 204.439297,40.1045752 C203.488285,41.1808279 202.496805,42.246732 201.464856,43.3022876 C200.432907,44.3578431 199.370607,45.3823529 198.277955,46.375817 C197.185304,47.369281 196.092652,48.3006536 195,49.1699346 L195,49.1699346 L201.859425,56 Z M228.427632,56 L235,49.4491803 C234.368421,48.7409836 233.588816,47.895082 232.661184,46.9114754 C231.733553,45.9278689 230.736842,44.9245902 229.671053,43.9016393 C228.605263,42.8786885 227.519737,41.8459016 226.414474,40.8032787 C225.309211,39.7606557 224.263158,38.8262295 223.276316,38 L223.276316,38 L217,43.3114754 C217.907895,44.1770492 218.855263,45.1311475 219.842105,46.1737705 C220.828947,47.2163934 221.825658,48.2983607 222.832237,49.4196721 C223.838816,50.5409836 224.815789,51.6622951 225.763158,52.7836066 C226.710526,53.904918 227.598684,54.9770492 228.427632,56 L228.427632,56 Z M56,105 L56,96.4841849 L44.2618262,96.4841849 L46.3190319,92.1046229 L53.2167217,92.1046229 L53.2167217,83.8321168 L34.520352,83.8321168 C34.3590026,83.0210868 34.1976531,82.2303325 34.0363036,81.459854 C33.8749542,80.6893755 33.7741107,80.2027575 33.7337734,80 L33.7337734,80 L22.6006601,80 C22.9636964,81.1759935 23.306564,82.4533658 23.6292629,83.8321168 L23.6292629,83.8321168 L3.78327833,83.8321168 L3.78327833,92.1046229 L10.620462,92.1046229 C11.3465347,93.5239254 11.9919325,94.9837794 12.5566557,96.4841849 L12.5566557,96.4841849 L1,96.4841849 L1,105 L56,105 Z M32.3283582,97 L23.6716418,97 L22,93 L34,93 C33.681592,93.8148148 33.3830846,94.5555556 33.1044776,95.2222222 C32.8258706,95.8888889 32.5671642,96.4814815 32.3283582,97 L32.3283582,97 Z M50,136 L50,108 L6,108 L6,136 L50,136 Z M40,118 L16,118 L16,115 L40,115 L40,118 Z M40,129 L16,129 L16,126 L40,126 L40,129 Z M81.2982885,137 L85.6992665,136.512514 C87.4922575,136.309394 89.0101874,136.075807 90.2530562,135.811752 C91.495925,135.547697 92.5044825,135.11099 93.2787286,134.501632 C94.0529747,133.892274 94.6132844,133.059485 94.9596577,132.003264 C95.306031,130.947044 95.4792176,129.504897 95.4792176,127.676823 L95.4792176,127.676823 L95.4792176,112.260065 L114,112.260065 L114,102.997824 L95.4792176,102.997824 L95.4792176,94.9542982 L85.0268949,94.710555 L85.0268949,102.997824 L75.3080685,102.997824 L75.9804401,93.5527748 C79.1181744,93.4309032 82.3475958,93.2887196 85.6687042,93.1262242 C88.9898126,92.9637287 92.2396088,92.7809213 95.4180929,92.577802 C98.596577,92.3746826 101.622249,92.1410954 104.49511,91.8770403 C107.367971,91.6129851 109.96577,91.359086 112.288509,91.1153428 L112.288509,91.1153428 L110.210269,81 C108.498778,81.2437432 106.542787,81.4773304 104.342298,81.7007617 C102.141809,81.924193 99.798696,82.1273123 97.3129584,82.3101197 C94.8272209,82.4929271 92.2396088,82.6655785 89.5501222,82.828074 C86.8606357,82.9905695 84.1813366,83.122597 81.5122249,83.2241567 C78.8431133,83.3257164 76.204564,83.4069641 73.596577,83.4678999 C70.9885901,83.5288357 68.5232274,83.5593036 66.200489,83.5593036 L66.200489,83.5593036 L64,112.260065 L85.0268949,112.260065 L85.0268949,123.898803 C85.0268949,124.9144 84.7722086,125.564382 84.2628362,125.848749 C83.7534637,126.133116 82.8467808,126.356547 81.5427873,126.519042 L81.5427873,126.519042 L78.1809291,126.884657 L81.2982885,137 Z M67.8163265,136 C68.7959184,134.739169 69.8571429,133.31565 71,131.729443 C72.1428571,130.143236 73.2755102,128.506189 74.3979592,126.818302 C75.5204082,125.130416 76.5714286,123.473033 77.5510204,121.846154 C78.5306122,120.219275 79.3469388,118.755084 80,117.453581 L80,117.453581 L70.8163265,113 C70.244898,114.220159 69.5102041,115.603006 68.6122449,117.148541 C67.7142857,118.694076 66.7244898,120.259947 65.6428571,121.846154 C64.5612245,123.432361 63.4387755,124.988064 62.2755102,126.513263 C61.1122449,128.038462 60.0204082,129.411141 59,130.6313 L59,130.6313 L67.8163265,136 Z M108.158537,136 L117,130.356201 C116.146341,128.859279 115.191057,127.271328 114.134146,125.592348 C113.077236,123.913369 112,122.274846 110.902439,120.676781 C109.804878,119.078716 108.768293,117.602023 107.792683,116.246702 C106.817073,114.891381 106.004065,113.809147 105.353659,113 L105.353659,113 L97,117.976253 C97.8130081,118.987687 98.7174797,120.23175 99.7134146,121.708443 C100.70935,123.185136 101.72561,124.742744 102.762195,126.381266 C103.79878,128.019789 104.784553,129.67854 105.719512,131.35752 C106.654472,133.0365 107.46748,134.583993 108.158537,136 L108.158537,136 Z M124.560976,137 C129.436903,135.466306 133.748674,133.861982 137.496288,132.187027 C141.243902,130.512072 144.568399,128.685766 147.469777,126.708108 C150.492047,128.766486 153.907211,130.612973 157.71527,132.247568 C161.52333,133.882162 165.825027,135.405766 170.620361,136.818378 L170.620361,136.818378 L176,126.163243 C171.849417,125.436757 168.101803,124.518559 164.757158,123.408649 C161.412513,122.298739 158.370095,120.976937 155.629905,119.443243 C158.007423,116.698739 160.012195,113.611171 161.644221,110.180541 C163.276246,106.74991 164.696713,102.814775 165.90562,98.3751351 L165.90562,98.3751351 L174.186638,98.3751351 L174.186638,88.6281081 L153.695652,88.6281081 C153.574761,87.5787387 153.433722,86.4284685 153.272534,85.1772973 C153.111347,83.9261261 152.930011,82.5336937 152.728526,81 L152.728526,81 L140.88123,81.5448649 C141.485684,84.0875676 141.969247,86.4486486 142.331919,88.6281081 L142.331919,88.6281081 L120.632025,88.6281081 L120.632025,98.3751351 L128.489926,98.3751351 C129.658537,102.653333 131.099152,106.517838 132.811771,109.968649 C134.52439,113.419459 136.609756,116.537297 139.067869,119.322162 C136.529162,120.694414 133.617709,121.965766 130.33351,123.136216 C127.049311,124.306667 123.271474,125.436757 119,126.526486 L119,126.526486 L124.560976,137 Z M147.648221,113 C143.893281,108.925926 141.343874,103.925926 140,98 L140,98 L155,98 C154.209486,101.127572 153.231225,103.915638 152.065217,106.364198 C150.899209,108.812757 149.426877,111.024691 147.648221,113 Z M197.165217,137 L197.165217,116.926803 L200.208696,121.809473 L206.356522,118.37352 L206.356522,126.209903 C206.356522,128.138859 206.528986,129.726229 206.873913,130.972013 C207.218841,132.217797 207.776812,133.212415 208.547826,133.955867 C209.318841,134.699318 210.343478,135.221744 211.621739,135.523143 C212.9,135.824543 214.472464,136.015429 216.33913,136.095802 C219.17971,136.216362 222.02029,136.216362 224.86087,136.095802 C226.565217,136.015429 227.985507,135.824543 229.121739,135.523143 C230.257971,135.221744 231.201449,134.749551 231.952174,134.106566 C232.702899,133.463581 233.311594,132.649803 233.778261,131.665231 C234.244928,130.68066 234.64058,129.465016 234.965217,128.018299 C235.249275,126.772515 235.472464,125.376032 235.634783,123.828848 C235.797101,122.281665 235.918841,120.865088 236,119.579117 L236,119.579117 L226.869565,116.324004 C226.788406,117.690348 226.676812,119.066738 226.534783,120.453175 C226.392754,121.839612 226.24058,122.874417 226.078261,123.557589 C225.875362,124.401507 225.56087,125.044492 225.134783,125.486545 C224.708696,125.928597 223.907246,126.209903 222.730435,126.330463 C221.594203,126.451023 220.478261,126.451023 219.382609,126.330463 C218.408696,126.209903 217.668116,125.97883 217.16087,125.637244 C216.653623,125.295658 216.4,124.501973 216.4,123.256189 L216.4,123.256189 L216.4,112.104413 C219.889855,109.773592 223.156522,107.38249 226.2,104.931109 C229.243478,102.479727 232.266667,99.7872264 235.269565,96.853606 L235.269565,96.853606 L228.513043,88.8966631 C225.063768,92.5938285 221.026087,96.1905274 216.4,99.68676 L216.4,99.68676 L216.4,81.5425188 L206.356522,81.3013994 L206.356522,106.558665 C204.855072,107.482957 203.343478,108.367061 201.821739,109.21098 C200.3,110.054898 198.747826,110.878723 197.165217,111.682454 L197.165217,111.682454 L197.165217,95.7082885 C198.13913,93.6587729 199.052174,91.559024 199.904348,89.409042 C200.756522,87.2590599 201.527536,84.9784715 202.217391,82.5672766 L202.217391,82.5672766 L192.113043,81 C191.463768,83.2504485 190.753623,85.3702906 189.982609,87.3595264 C189.211594,89.3487621 188.33913,91.3179046 187.365217,93.2669537 C186.391304,95.2160029 185.295652,97.1851453 184.078261,99.1743811 C182.86087,101.163617 181.501449,103.263366 180,105.473628 L180,105.473628 L182.495652,118.1324 C183.347826,117.047363 184.17971,115.962325 184.991304,114.877287 C185.802899,113.79225 186.614493,112.727305 187.426087,111.682454 L187.426087,111.682454 L187.426087,137 L197.165217,137 Z M244.803519,102 C246.158358,100.931839 247.57478,99.7609711 249.052786,98.487395 C250.530792,97.2138189 251.98827,95.9197012 253.42522,94.605042 C254.86217,93.2903828 256.237537,91.9757236 257.55132,90.6610644 C258.865103,89.3464052 260.014663,88.1344538 261,87.0252101 L261,87.0252101 L253.979472,80 C253.117302,80.9449113 252.090909,81.9925303 250.900293,83.1428571 C249.709677,84.2931839 248.478006,85.43324 247.205279,86.5630252 C245.932551,87.6928105 244.670088,88.7815126 243.417889,89.8291317 C242.165689,90.8767507 241.026393,91.7908497 240,92.5714286 L240,92.5714286 L244.803519,102 Z M293,93 L293,83 L265,83 L265,93 L293,93 Z M256.233333,137 L256.233333,109.036474 C257.17037,108.06383 258.046296,107.121581 258.861111,106.209726 C259.675926,105.297872 260.388889,104.436677 261,103.62614 L261,103.62614 L253.972222,97 C253.035185,98.1752786 251.965741,99.4012158 250.763889,100.677812 C249.562037,101.954407 248.299074,103.21074 246.975,104.446809 C245.650926,105.682877 244.306481,106.898683 242.941667,108.094225 C241.576852,109.289767 240.262963,110.414387 239,111.468085 L239,111.468085 L242.483333,121.559271 L246.944444,117.790274 L246.944444,137 L256.233333,137 Z M270.76,137 L276.46,136.633058 C278.38,136.510744 280.02,136.266116 281.38,135.899174 C282.74,135.532231 283.86,134.971625 284.74,134.217355 C285.62,133.463085 286.26,132.484573 286.66,131.281818 C287.06,130.079063 287.26,128.580716 287.26,126.786777 L287.26,126.786777 L287.26,110.090909 L295,110.090909 L295,100 L262,100 L262,110.090909 L277,110.090909 L277,122.689256 C277,123.993939 276.73,124.901102 276.19,125.410744 C275.65,125.920386 274.64,126.215978 273.16,126.297521 L273.16,126.297521 L267.88,126.480992 L270.76,137 Z M355,135 L355,125 L340.016611,125 L340.016611,115.060606 L344.341085,117.484848 C345.193798,115.989899 346.117571,114.292929 347.112403,112.393939 C348.107235,110.494949 349.081764,108.545455 350.035991,106.545455 C350.990218,104.545455 351.893688,102.565657 352.746401,100.606061 C353.599114,98.6464646 354.330011,96.8787879 354.939092,95.3030303 L354.939092,95.3030303 L345.315615,90.8787879 C344.544112,93.2626263 343.732004,95.6363636 342.879291,98 C342.026578,100.363636 341.072351,102.717172 340.016611,105.060606 L340.016611,105.060606 L340.016611,81.2424242 L329.784053,81 L329.784053,125 L325.398671,125 L325.398671,81.2424242 L315.105205,81 L315.105205,104.757576 C314.577335,103.424242 314.049465,102.111111 313.521595,100.818182 C312.993725,99.5252525 312.476006,98.2828283 311.968439,97.0909091 C311.460871,95.8989899 310.973606,94.7979798 310.506645,93.7878788 C310.039683,92.7777778 309.603175,91.9090909 309.197121,91.1818182 L309.197121,91.1818182 L300.060908,95.4848485 C300.83241,96.7777778 301.644518,98.3232323 302.497231,100.121212 C303.349945,101.919192 304.192506,103.818182 305.024917,105.818182 C305.857327,107.818182 306.659284,109.838384 307.430786,111.878788 C308.202289,113.919192 308.89258,115.848485 309.501661,117.666667 L309.501661,117.666667 L315.105205,114.757576 L315.105205,125 L300,125 L300,135 L355,135 Z M378.595628,137 L382.021858,136.515924 C383.103825,136.354565 384.005464,136.183121 384.726776,136.001592 C385.448087,135.820064 386.029144,135.517516 386.469945,135.093949 C386.910747,134.670382 387.23133,134.085456 387.431694,133.339172 C387.632058,132.592887 387.73224,131.57431 387.73224,130.283439 L387.73224,130.283439 L387.73224,99.8471338 L393.923497,104.082803 C396.688525,101.541401 398.712204,98.7983015 399.994536,95.8535032 L399.994536,95.8535032 L402.098361,101.904459 L406.065574,101.601911 C407.428051,101.480892 408.570128,101.319533 409.491803,101.117834 C410.413479,100.916136 411.154827,100.563163 411.715847,100.058917 C412.276867,99.5546709 412.677596,98.858811 412.918033,97.9713376 C413.15847,97.0838641 413.318761,95.9140127 413.398907,94.4617834 L413.398907,94.4617834 L414,81.6942675 L388.934426,81.6942675 L388.934426,89.5 L393.142077,89.5 C392.981785,90.3471338 392.771403,91.133758 392.510929,91.8598726 C392.250455,92.5859873 391.909836,93.2717622 391.489071,93.9171975 C391.068306,94.5626327 390.547359,95.2181529 389.92623,95.883758 C389.3051,96.5493631 388.57377,97.2452229 387.73224,97.9713376 L387.73224,97.9713376 L387.73224,94.8248408 L384.065574,94.8248408 L386.169399,90.6496815 L386.169399,83.5700637 L376.071038,83.5700637 L377.153005,80.3025478 L368.136612,80 C367.415301,82.7834395 366.403461,85.4559448 365.101093,88.0175159 C363.798725,90.579087 362.185792,93.1305732 360.262295,95.6719745 L360.262295,95.6719745 L363.147541,97.910828 L363.147541,109.649682 C363.147541,112.876858 363.047359,115.640127 362.846995,117.93949 C362.64663,120.238854 362.376138,122.276008 362.035519,124.050955 C361.6949,125.825902 361.264117,127.47983 360.743169,129.012739 C360.222222,130.545648 359.641166,132.179406 359,133.914013 L359,133.914013 L366.754098,136.757962 C367.315118,135.184713 367.876138,133.409766 368.437158,131.433121 C368.998179,129.456476 369.43898,127.096603 369.759563,124.353503 L369.759563,124.353503 L372.644809,124.353503 L372.644809,132.522293 L377.153005,132.522293 L378.595628,137 Z M400,95 C400.299145,94.2083333 400.544872,93.3958333 400.737179,92.5625 C400.929487,91.7291667 401.111111,90.875 401.282051,90 L401.282051,90 L405,90 L404.935897,92 C404.850427,93.2083333 404.57265,93.9791667 404.102564,94.3125 C403.632479,94.6458333 402.777778,94.8541667 401.538462,94.9375 L401.538462,94.9375 L400,95 Z M376.068966,95 L371,95 C371.402299,94.3650794 371.774425,93.7195767 372.116379,93.0634921 C372.458333,92.4074074 372.79023,91.7195767 373.112069,91 L373.112069,91 L378,91 L376.068966,95 Z M372,106 L370,106 L370,102 L372,102 L372,106 Z M381,106 L379,106 L379,102 L381,102 L381,106 Z M407.277162,137 L407.277162,128.852252 L415,128.852252 L415,119.846847 L407.277162,119.846847 L407.277162,115.803604 L413.263858,115.803604 L413.263858,106.920721 L407.277162,106.920721 L407.277162,103.245045 L398.776053,103 L398.776053,106.920721 L396.381375,106.920721 C396.461197,106.593994 396.511086,106.287688 396.531042,106.001802 C396.550998,105.715916 396.580931,105.43003 396.620843,105.144144 L396.620843,105.144144 L390.514412,104.47027 C390.43459,105.327928 390.304878,106.338739 390.125277,107.502703 C389.945676,108.666667 389.736142,109.851051 389.496674,111.055856 C389.257206,112.260661 389.007761,113.434835 388.748337,114.578378 C388.488914,115.721922 388.239468,116.722523 388,117.58018 L388,117.58018 L394.166297,118.989189 L394.884701,115.803604 L398.776053,115.803604 L398.776053,119.846847 L389.077605,119.846847 L389.077605,128.852252 L398.776053,128.852252 L398.776053,137 L407.277162,137 Z M372,117 L370,117 C370.034188,116.562189 370.051282,116.124378 370.051282,115.686567 L370.051282,115.686567 L370.051282,113 L372,113 L372,117 Z M381,117 L379,117 L379,113 L381,113 L381,117 Z M379,130 L379,125 L381,125 L381,127.763158 C381,128.596491 380.898148,129.144737 380.694444,129.407895 C380.490741,129.671053 380.018519,129.846491 379.277778,129.934211 L379.277778,129.934211 L379,130 Z M437.681259,137 C441.29275,134.843683 444.302326,132.728051 446.709986,130.653105 C449.117647,128.578158 451.043776,126.381156 452.488372,124.062099 C454.294118,126.869379 456.471044,129.29015 459.019152,131.324411 C461.567259,133.358672 464.54674,135.189507 467.957592,136.816916 L467.957592,136.816916 L474.518468,127.601713 C472.271318,126.706638 470.264934,125.781049 468.499316,124.824946 C466.733698,123.868844 465.158687,122.861884 463.774282,121.804069 C462.389877,120.746253 461.196078,119.596895 460.192886,118.355996 C459.189694,117.115096 458.326949,115.782655 457.604651,114.358672 L457.604651,114.358672 L475,114.358672 L475,104.899358 L471.508892,104.899358 L471.508892,87.3843683 L456.822161,87.3843683 L456.822161,80.2441113 L447.071135,80 L447.071135,87.3843683 L437.019152,87.3843683 L437.019152,96.6605996 L447.071135,96.6605996 L447.071135,104.899358 L436.056088,104.899358 L436.056088,114.358672 L446.168263,114.358672 C445.766986,115.701285 445.205198,116.952355 444.4829,118.111884 C443.760602,119.271413 442.797538,120.400428 441.593707,121.498929 C440.389877,122.59743 438.925217,123.695931 437.199726,124.794433 C435.474236,125.892934 433.407661,127.052463 431,128.273019 L431,128.273019 L437.681259,137 Z M425.78481,104 L435,100.44898 C434.64557,99.1836735 434.241913,97.7755102 433.78903,96.2244898 C433.336146,94.6734694 432.863572,93.1020408 432.371308,91.5102041 C431.879044,89.9183673 431.386779,88.3877551 430.894515,86.9183673 C430.40225,85.4489796 429.959212,84.1428571 429.565401,83 L429.565401,83 L421,85.4489796 C421.275668,86.3061224 421.649789,87.5510204 422.122363,89.1836735 C422.594937,90.8163265 423.067511,92.5612245 423.540084,94.4183673 C424.012658,96.2755102 424.455696,98.0816327 424.869198,99.8367347 C425.2827,101.591837 425.587904,102.979592 425.78481,104 L425.78481,104 Z M463,105 L457,105 L457,97 L463,97 L463,105 Z M428.945946,134 C429.357786,132.609091 429.831403,130.911364 430.366795,128.906818 C430.902188,126.902273 431.447876,124.795455 432.003861,122.586364 C432.559846,120.377273 433.095238,118.157955 433.610039,115.928409 C434.124839,113.698864 434.58816,111.622727 435,109.7 L435,109.7 L425.548263,107 C425.136422,108.963636 424.673102,110.988636 424.158301,113.075 C423.643501,115.161364 423.097812,117.2375 422.521236,119.303409 C421.944659,121.369318 421.357786,123.394318 420.760618,125.378409 C420.163449,127.3625 419.576577,129.234091 419,130.993182 L419,130.993182 L428.945946,134 Z M487.906318,137 C489.980392,134.931697 491.810458,132.924226 493.396514,130.977588 C494.982571,129.03095 496.365287,127.053895 497.544662,125.046425 C498.724038,123.038954 499.71024,120.970651 500.503268,118.841515 C501.296296,116.71238 501.936819,114.390608 502.424837,111.876201 L502.424837,111.876201 L518.285403,111.876201 L517.858388,120.514408 C517.777052,121.284952 517.665214,121.913554 517.522876,122.400213 C517.380537,122.886873 517.136529,123.272145 516.79085,123.55603 C516.445171,123.839915 515.977487,124.062967 515.3878,124.225187 C514.798112,124.387407 514.035585,124.509072 513.100218,124.590181 L513.100218,124.590181 L506.389978,125.198506 L509.440087,135.844184 L517.309368,135.053362 C519.139434,134.891142 520.705156,134.647812 522.006536,134.323372 C523.307916,133.998933 524.385621,133.491996 525.239651,132.802561 C526.093682,132.113127 526.754539,131.190502 527.222222,130.034685 C527.689906,128.878869 527.984749,127.368196 528.106754,125.502668 L528.106754,125.502668 L529.265795,101.534685 L503.461874,101.534685 C503.502542,101.33191 503.522876,101.129136 503.522876,100.926361 L503.522876,100.926361 L503.522876,100.318036 C503.522876,99.7097118 503.533043,99.0202775 503.553377,98.2497332 C503.573711,97.4791889 503.583878,96.6883671 503.583878,95.8772679 L503.583878,95.8772679 L535,95.8772679 L535,86.022412 L514.320261,86.022412 C514.157589,85.0896478 513.984749,84.0859125 513.801743,83.011206 C513.618736,81.9364995 513.445897,80.9327641 513.283224,80 L513.283224,80 L501.814815,80 C501.977487,80.6894344 502.160494,81.601921 502.363834,82.73746 C502.567175,83.8729989 502.770516,84.9679829 502.973856,86.022412 L502.973856,86.022412 L481.318083,86.022412 L481.318083,95.8772679 L493.030501,95.8772679 L492.969499,98.7363927 C492.888163,102.589114 492.603486,105.914621 492.115468,108.712914 C491.627451,111.511206 490.84459,114.05603 489.766885,116.347385 C488.689179,118.638741 487.275962,120.828709 485.527233,122.917289 C483.778504,125.00587 481.60276,127.287086 479,129.760939 L479,129.760939 L487.906318,137 Z M552.178744,93 L552.178744,90.9310345 L583.458937,90.9310345 L583.458937,93 L593,93 L593,83.7783251 L574.219807,83.7783251 C574.018519,83.1871921 573.827295,82.5960591 573.646135,82.0049261 C573.464976,81.4137931 573.354267,81.0788177 573.31401,81 L573.31401,81 L561.780193,81.0591133 C561.981481,81.3743842 562.18277,81.7783251 562.384058,82.270936 C562.585346,82.7635468 562.786634,83.2660099 562.987923,83.7783251 L562.987923,83.7783251 L543,83.7783251 L543,93 L552.178744,93 Z M572.345301,137 L572.345301,128.630728 C575.194298,130.328841 578.294087,131.834906 581.644667,133.148922 C584.995248,134.462938 588.335797,135.625337 591.666315,136.636119 L591.666315,136.636119 L596,128.024259 C592.187962,127.336927 588.456177,126.518194 584.804646,125.568059 C581.153115,124.617925 577.942978,123.536388 575.174234,122.32345 L575.174234,122.32345 L593.652587,122.32345 L593.652587,114.985175 L588.05491,114.985175 L590.823654,107.525606 C589.138332,107.121294 587.442978,106.716981 585.737592,106.312668 C584.032207,105.908356 582.2566,105.524259 580.410771,105.160377 C581.213305,104.59434 581.945618,104.018194 582.607709,103.431941 C583.269799,102.845687 583.881732,102.249326 584.443506,101.642857 L584.443506,101.642857 L594.736008,101.642857 L594.736008,94.2439353 L568.493136,94.2439353 L570.298838,92 L559.284055,92 C559.043295,92.3638814 558.792503,92.7378706 558.531679,93.1219677 C558.270855,93.5060647 557.979937,93.8800539 557.658923,94.2439353 L557.658923,94.2439353 L540.384372,94.2439353 L540.384372,101.642857 L551.399155,101.642857 C550.997888,102.087601 550.596621,102.512129 550.195354,102.916442 L550.195354,102.916442 L548.931362,104.190027 C549.974657,104.473046 551.038015,104.756065 552.121436,105.039084 C553.204857,105.322102 554.328405,105.625337 555.49208,105.948787 C553.686378,106.150943 551.700106,106.363208 549.533263,106.58558 C547.36642,106.807951 544.958817,107.020216 542.310454,107.222372 L542.310454,107.222372 L545.921859,114.439353 C551.178458,113.752022 555.742872,113.034367 559.6151,112.286388 C563.487328,111.53841 566.868004,110.739892 569.757128,109.890836 C572.766631,110.699461 575.74604,111.528302 578.695354,112.377358 C581.644667,113.226415 584.543823,114.095687 587.392819,114.985175 L587.392819,114.985175 L572.345301,114.985175 L572.345301,112.862534 L562.955649,112.619946 L562.955649,114.985175 L541.648363,114.985175 L541.648363,122.32345 L559.765576,122.32345 C554.829989,124.587601 547.908131,126.508086 539,128.084906 L539,128.084906 L543.694826,136.636119 C547.105597,135.584906 550.476241,134.392183 553.806758,133.057951 C557.137276,131.72372 560.186906,130.268194 562.955649,128.691375 L562.955649,128.691375 L562.955649,137 L572.345301,137 Z M568.410628,103 C567.154589,102.785714 565.888084,102.580357 564.611111,102.383929 C563.334138,102.1875 562.130435,102.017857 561,101.875 C561.376812,101.589286 561.753623,101.285714 562.130435,100.964286 C562.507246,100.642857 562.884058,100.321429 563.26087,100 L563.26087,100 L574,100 C573.288245,100.607143 572.492754,101.160714 571.613527,101.660714 C570.7343,102.160714 569.666667,102.607143 568.410628,103 Z" id="专注提供音乐文化行业解决方案"></path>
            </g>
        </g>
    </g>
</svg>